<svg width="149" height="29" viewBox="0 0 149 29" fill="none" xmlns="http://www.w3.org/2000/svg">
<path d="M8.62424 12.514C7.17636 12.514 5.99902 11.3357 5.99902 9.88875C5.99902 9.77662 6.00703 9.66716 6.02038 9.55859H7.46291C7.43355 9.6636 7.41664 9.77395 7.41664 9.88875C7.41664 10.5562 7.9577 11.0972 8.62513 11.0972C9.29255 11.0972 9.83362 10.5562 9.83362 9.88875C9.83362 9.77395 9.81671 9.6636 9.78734 9.55859H11.2299C11.2432 9.66627 11.2512 9.77662 11.2512 9.88875C11.2512 11.3366 10.073 12.514 8.62602 12.514H8.62424ZM7.3668 21.1051H7.11229C6.76968 21.1051 6.49114 21.3827 6.49114 21.7262V22.6001C6.50805 22.6001 6.52496 22.601 6.54186 22.601H7.98707V21.7262C7.98707 21.3836 7.70942 21.1051 7.36591 21.1051H7.3668ZM10.1629 21.1051H9.90837C9.56575 21.1051 9.28721 21.3827 9.28721 21.7262V22.601H10.7324C10.7493 22.601 10.7662 22.6001 10.7831 22.6001V21.7262C10.7831 21.3836 10.5055 21.1051 10.162 21.1051H10.1629ZM9.72416 18.3766C10.0668 18.3766 10.3453 18.099 10.3453 17.7555V16.8807H8.84938V17.7555C8.84938 18.0981 9.12703 18.3766 9.47053 18.3766H9.72505H9.72416ZM6.92986 17.7555C6.92986 18.0981 7.20751 18.3766 7.55101 18.3766H7.80553C8.14814 18.3766 8.42668 18.099 8.42668 17.7555V16.8807H6.93075V17.7555H6.92986Z" fill="white"/>
<path d="M13.5589 14.4254C15.1999 13.8461 16.4111 12.5406 16.8374 10.9922C16.9468 10.5953 17.0055 10.1824 17.0055 9.76146C17.0055 9.34054 16.9468 8.91605 16.8374 8.51738C16.6451 7.81435 16.2936 7.16917 15.8175 6.61921C15.0335 5.71418 13.9131 5.06722 12.6076 4.85365C12.556 4.84475 12.5106 4.81449 12.4831 4.76911C12.4555 4.72372 12.451 4.66944 12.4679 4.6196C12.5872 4.27966 12.6815 3.97531 12.7589 3.70656C13.0063 2.83891 13.0562 2.35836 13.0562 2.35213C13.0651 2.25691 13.0366 2.17148 12.9867 2.14389C12.9307 2.11364 12.8248 2.15012 12.7118 2.24089C12.6993 2.25068 11.9945 2.78195 11.1722 3.70745C10.9106 4.00201 10.6374 4.33572 10.3704 4.70592C10.3366 4.7522 10.2832 4.77978 10.2263 4.77978H10.0465C9.9584 4.77978 9.88276 4.71482 9.8703 4.62761C9.82314 4.30102 9.77152 3.99489 9.71902 3.70834C9.33636 1.63398 8.84869 0.582112 8.84246 0.570544C8.78284 0.443287 8.6805 0.355187 8.58528 0.358747C8.49362 0.361416 8.40374 0.457526 8.337 0.623048C8.32899 0.642626 7.77903 1.90095 7.50227 3.70834C7.45777 3.99845 7.4204 4.30191 7.39281 4.61782C7.3848 4.70948 7.30738 4.78067 7.21572 4.78067H7.04753C6.99058 4.78067 6.93629 4.75309 6.90337 4.70681C6.63639 4.33661 6.36319 4.0029 6.10156 3.70834C5.27929 2.78284 4.57538 2.25246 4.56559 2.24534C4.44812 2.1519 4.34222 2.11541 4.28616 2.14567C4.23544 2.17326 4.20696 2.25869 4.21675 2.35391C4.21675 2.36014 4.26658 2.84158 4.51398 3.70834C4.58873 3.97086 4.68128 4.26631 4.79607 4.59735C4.81387 4.64719 4.80764 4.70325 4.78006 4.74864C4.75247 4.79402 4.70619 4.82517 4.65369 4.83229C2.59089 5.12685 0.956143 6.68596 0.490724 8.64997C0.403514 9.01839 0.357239 9.40105 0.357239 9.79172V25.2831H11.6118C12.3674 25.2831 13.0882 25.1274 13.7432 24.8471C15.2604 24.1984 16.4227 22.8804 16.8391 21.2741C16.945 20.8657 17.0038 20.4385 17.0073 19.9989C17.0109 19.5353 16.9521 19.0796 16.8391 18.6436C16.7902 18.4549 16.7315 18.2689 16.6629 18.0883C16.5935 17.9059 16.5152 17.727 16.4262 17.5535C15.8344 16.3912 14.8253 15.2406 13.5572 14.7636C13.4869 14.7369 13.4415 14.6702 13.4415 14.5954C13.4415 14.5207 13.4895 14.4539 13.5598 14.429L13.5589 14.4254ZM7.34921 7.19409C7.36967 7.1843 7.39103 7.1754 7.4115 7.16561C7.43286 7.15582 7.4551 7.14604 7.47646 7.13625C7.48536 7.13269 7.49515 7.12913 7.50405 7.12557C7.57079 7.09798 7.63931 7.07306 7.70873 7.05082C7.71229 7.04993 7.71674 7.04815 7.7203 7.04726C7.75144 7.03747 7.78348 7.02768 7.81552 7.01878C7.82708 7.01522 7.83954 7.01166 7.85111 7.00899C7.88137 7.00098 7.91162 6.99386 7.94188 6.98674C7.95612 6.98318 7.97036 6.97962 7.9846 6.97695C8.01396 6.97073 8.04333 6.9645 8.0727 6.95916C8.08872 6.95649 8.10562 6.95293 8.12164 6.95026C8.15012 6.94581 8.1786 6.94047 8.20707 6.93691C8.22576 6.93424 8.24445 6.93246 8.26314 6.92979C8.28983 6.92623 8.31653 6.92356 8.34412 6.92089C8.36726 6.91911 8.39039 6.91733 8.41353 6.91555C8.43667 6.91377 8.4598 6.91199 8.48383 6.9111C8.52388 6.90932 8.56392 6.90843 8.60486 6.90843C8.61109 6.90843 8.61821 6.90843 8.62444 6.90843C8.62444 6.90843 8.62444 6.90843 8.62533 6.90843C8.62533 6.90843 8.62622 6.90843 8.62711 6.90843C8.67427 6.90843 8.72144 6.91021 8.76771 6.91199C8.78907 6.91288 8.80954 6.91466 8.83089 6.91644C8.85403 6.91822 8.87717 6.91911 8.90031 6.92178C8.93679 6.92534 8.97328 6.92979 9.00887 6.93424C9.01243 6.93424 9.016 6.93513 9.01955 6.93602C9.20643 6.96094 9.38797 7.00276 9.5624 7.0615C10.7477 7.45572 11.6056 8.57433 11.6056 9.8905C11.6056 11.5341 10.2681 12.8717 8.62444 12.8717C6.98079 12.8717 5.64326 11.5341 5.64326 9.8905C5.64326 9.353 5.78654 8.84931 6.0366 8.41326C6.04639 8.39546 6.05707 8.37766 6.06686 8.35986C6.07576 8.34474 6.08554 8.32961 6.09533 8.31359C6.11135 8.28778 6.12826 8.26197 6.14517 8.23617C6.1514 8.22638 6.15852 8.21659 6.16564 8.2068C6.18699 8.17565 6.20835 8.1454 6.2306 8.11603C6.23505 8.11069 6.23861 8.10446 6.24306 8.09912C6.26886 8.06442 6.29556 8.0306 6.32315 7.99767C6.32404 7.99589 6.32582 7.995 6.32671 7.99322C6.47888 7.80901 6.65152 7.64438 6.84196 7.502C6.87756 7.4753 6.91404 7.44949 6.95053 7.42458C6.95765 7.42013 6.96477 7.41568 6.971 7.41034C7.00125 7.38987 7.03151 7.37029 7.06266 7.3516C7.07423 7.34448 7.08491 7.33825 7.09647 7.33114C7.12317 7.31512 7.14987 7.29999 7.17746 7.28486C7.19258 7.27685 7.20682 7.26884 7.22195 7.26083C7.24598 7.24837 7.27001 7.23592 7.29403 7.22346C7.29581 7.22346 7.2967 7.22168 7.29848 7.22079C7.3145 7.21278 7.33141 7.20477 7.34743 7.19676L7.34921 7.19409ZM13.7992 19.7408C13.7992 21.3044 12.4537 22.5743 10.7842 22.6001L10.7335 22.601H6.49223C4.82277 22.5743 3.47724 21.3044 3.47724 19.7408C3.47724 18.1613 4.84947 16.8807 6.54295 16.8807H10.7335C12.427 16.8807 13.7992 18.1613 13.7992 19.7408ZM7.21839 7.67286C7.2709 7.63993 7.3234 7.6079 7.37768 7.57853C7.37946 7.57764 7.38124 7.57675 7.38302 7.57586C7.43998 7.54471 7.49871 7.51624 7.55833 7.49043C7.56456 7.48776 7.5699 7.48509 7.57613 7.48242C7.63664 7.45572 7.69805 7.43169 7.76123 7.41034C7.76657 7.40856 7.7728 7.40678 7.77814 7.405C7.90718 7.36139 8.04066 7.32669 8.17682 7.30355C8.18216 7.30355 8.1866 7.30177 8.19194 7.30088C8.2578 7.2902 8.32454 7.2813 8.39217 7.27596C8.40107 7.27596 8.41086 7.27418 8.41976 7.27418C8.48739 7.26884 8.55591 7.26528 8.62444 7.26528C8.62444 7.26528 8.62444 7.26528 8.62533 7.26528C8.62711 7.26528 8.628 7.26528 8.62889 7.26528C8.69474 7.26528 8.7597 7.26884 8.82467 7.27329C8.83356 7.27329 8.84246 7.27418 8.85136 7.27507C9.91925 7.37118 10.8367 8.14273 11.1438 9.20438H6.0891C6.14606 8.99347 6.22793 8.79414 6.33116 8.60904C6.33383 8.60459 6.3365 8.60014 6.33917 8.59569C6.37209 8.53695 6.40769 8.48 6.44507 8.42483C6.44685 8.42216 6.44863 8.42038 6.44951 8.41771C6.48244 8.36965 6.51715 8.32249 6.55274 8.2771C6.56342 8.26375 6.5741 8.24952 6.58478 8.23617C6.61949 8.19345 6.65597 8.15163 6.69335 8.11158C6.7067 8.09645 6.72094 8.08221 6.73517 8.06798C6.76988 8.03149 6.80548 7.99678 6.84285 7.96297C6.85709 7.94962 6.87133 7.93716 6.88557 7.9247C6.92205 7.89266 6.95943 7.86152 6.9968 7.83126C7.01015 7.82058 7.02439 7.80901 7.03774 7.79922C7.08313 7.76452 7.13029 7.73159 7.17834 7.69956C7.1908 7.69155 7.20326 7.68354 7.21572 7.67553L7.21839 7.67286ZM35.2628 8.49335C35.2628 10.7715 34.6345 12.4463 33.0202 14.4682C33.0149 14.4744 33.0087 14.4815 33.0042 14.4877L30.3639 17.994C29.6938 18.7085 29.3093 19.7346 29.3111 20.8087L29.3138 23.6813C29.3138 24.1378 29.1492 24.565 28.8608 24.8542C28.641 25.074 28.3758 25.1906 28.0937 25.1906H24.4478C24.1657 25.1906 23.9005 25.074 23.6807 24.8542C23.5623 24.7359 23.4671 24.5944 23.3933 24.4368C23.2865 24.2099 23.2277 23.951 23.2277 23.6813L23.2304 20.8087C23.2313 19.7355 19.6405 14.5224 19.6094 14.4797C19.5079 14.324 19.411 14.1727 19.3166 14.025C17.9408 11.8625 17.3597 10.5312 17.3597 8.49335V4.98001C17.3597 4.93819 17.3802 4.91594 17.3838 4.91416H22.2996C22.5701 4.91416 22.8219 5.01828 23.0293 5.19448C23.3675 5.48192 23.589 5.96158 23.589 6.50531V9.86914C23.589 11.196 23.9041 12.1767 24.5261 12.7836C25.1437 13.3869 25.9117 13.4599 26.3113 13.451H26.313C26.3175 13.451 26.3228 13.451 26.3273 13.451C26.362 13.451 26.4011 13.451 26.4421 13.451C26.8603 13.4412 27.542 13.3273 28.1009 12.7782C28.7184 12.1713 29.0326 11.1924 29.0326 9.86914V6.50531C29.0326 5.62786 29.611 4.91416 30.3221 4.91416H35.2352C35.2397 4.91594 35.2539 4.93107 35.2592 4.95865C35.2601 4.96488 35.2619 4.972 35.2619 4.98001V8.49335H35.2628ZM49.8341 6.43233C48.3773 5.15176 46.4426 4.50391 44.0622 4.50391C41.2376 4.50391 39.0404 5.41607 37.5258 7.21456C37.4813 7.26795 37.4368 7.32135 37.3932 7.37563C35.8661 9.29337 35.091 11.859 35.091 15.0012C35.091 16.1332 35.1934 17.1895 35.3936 18.1693C35.7487 19.9072 36.4161 21.4005 37.3932 22.6268C37.4235 22.6651 37.4546 22.7024 37.4858 22.7398C39.0013 24.5712 41.2127 25.4994 44.0622 25.4994C46.9116 25.4994 49.2182 24.5276 50.7444 22.6126C52.2626 20.7046 53.0333 18.1435 53.0333 15.0012C53.0333 11.859 52.259 9.29426 50.7311 7.37563C50.4561 7.03035 50.1562 6.71532 49.8341 6.43233ZM41.7066 17.4573C41.1646 16.8442 40.8879 16.0175 40.8879 15.0021C40.8879 13.9867 41.1593 13.1609 41.6941 12.5451C42.2352 11.9221 43.0325 11.6062 44.0622 11.6062C45.0918 11.6062 45.8918 11.9213 46.4426 12.5442C46.9597 13.1289 47.2338 13.9049 47.2605 14.8508C47.2622 14.9007 47.2631 14.9514 47.2631 15.0021C47.2631 16.0175 46.9873 16.8442 46.4426 17.46C45.8927 18.0821 45.0918 18.398 44.0622 18.398C43.9491 18.398 43.8406 18.3935 43.7329 18.3855C42.8608 18.3241 42.18 18.0135 41.7057 17.4573H41.7066ZM68.1314 6.43233C66.6746 5.15176 64.7399 4.50391 62.3594 4.50391C59.4521 4.50391 57.2078 5.47035 55.6905 7.37652C54.9021 8.36609 54.3165 9.5292 53.9321 10.8543C53.5717 12.0966 53.3883 13.4813 53.3883 15.0021C53.3883 17.8943 54.046 20.2961 55.3417 22.156C55.4538 22.3171 55.5686 22.4746 55.6905 22.6277C55.7208 22.6659 55.7519 22.7033 55.7831 22.7407C57.2986 24.5712 59.51 25.5003 62.3594 25.5003C65.2089 25.5003 67.5155 24.5285 69.0417 22.6134C70.5599 20.7055 71.3306 18.1443 71.3306 15.0021C71.3306 11.8599 70.5563 9.29515 69.0284 7.37652C68.7534 7.03124 68.4535 6.71621 68.1314 6.43322V6.43233ZM60.0039 17.4573C59.4619 16.8442 59.1852 16.0175 59.1852 15.0021C59.1852 13.9867 59.4566 13.1609 59.9914 12.5451C60.5325 11.9221 61.3298 11.6062 62.3594 11.6062C63.3891 11.6062 64.1891 11.9213 64.7399 12.5442C65.257 13.1289 65.5311 13.9049 65.5578 14.8508C65.5595 14.9007 65.5604 14.9514 65.5604 15.0021C65.5604 16.0166 65.2846 16.8442 64.7399 17.46C64.1891 18.0821 63.3891 18.398 62.3594 18.398C62.2464 18.398 62.1379 18.3935 62.0302 18.3864C61.1581 18.325 60.4773 18.0144 60.003 17.4582L60.0039 17.4573ZM86.4286 6.43233C84.9719 5.15176 83.0372 4.50391 80.6567 4.50391C77.7494 4.50391 75.5051 5.47035 73.9878 7.37652C73.1993 8.36609 72.6138 9.5292 72.2294 10.8543C71.8689 12.0966 71.6856 13.4813 71.6856 15.0021C71.6856 17.8943 72.3433 20.2961 73.639 22.156C73.7511 22.3171 73.8659 22.4746 73.9878 22.6277C74.0181 22.6659 74.0492 22.7033 74.0804 22.7407C75.5959 24.5721 77.8073 25.5003 80.6567 25.5003C83.5062 25.5003 85.8128 24.5285 87.339 22.6134C88.8572 20.7055 89.6278 18.1443 89.6278 15.0021C89.6278 11.8599 88.8536 9.29515 87.3257 7.37652C87.0507 7.03124 86.7508 6.71621 86.4286 6.43322V6.43233ZM78.3012 17.4573C77.7592 16.8442 77.4825 16.0175 77.4825 15.0021C77.4825 13.9867 77.7539 13.1609 78.2887 12.5451C78.8298 11.9221 79.6262 11.6062 80.6567 11.6062C81.6872 11.6062 82.4864 11.9213 83.0372 12.5442C83.5543 13.1289 83.8284 13.9049 83.855 14.8508C83.8568 14.9007 83.8577 14.9514 83.8577 15.0021C83.8577 16.0175 83.5818 16.8442 83.0372 17.46C82.4864 18.0821 81.6864 18.398 80.6567 18.398C80.5437 18.398 80.4352 18.3935 80.3275 18.3864C79.4554 18.325 78.7746 18.0144 78.3003 17.4582L78.3012 17.4573ZM104.726 6.43233C103.269 5.15176 101.335 4.50391 98.954 4.50391C96.0467 4.50391 93.8024 5.47035 92.2851 7.37652C91.4967 8.36609 90.9111 9.5292 90.5267 10.8543C90.1662 12.0966 89.9829 13.4813 89.9829 15.0021C89.9829 17.8943 90.6406 20.2961 91.9363 22.156C92.0484 22.3171 92.1632 22.4746 92.2851 22.6277C92.3154 22.6659 92.3465 22.7033 92.3776 22.7407C93.8932 24.5721 96.1046 25.5003 98.954 25.5003C101.803 25.5003 104.11 24.5285 105.636 22.6134C107.154 20.7055 107.925 18.1443 107.925 15.0021C107.925 11.8599 107.151 9.29515 105.623 7.37652C105.348 7.03124 105.048 6.71621 104.726 6.43322V6.43233ZM96.5985 17.4573C96.0565 16.8442 95.7798 16.0175 95.7798 15.0021C95.7798 13.9867 96.0512 13.1609 96.586 12.5451C97.1271 11.9221 97.9235 11.6062 98.954 11.6062C99.9845 11.6062 100.784 11.9213 101.335 12.5442C101.852 13.1289 102.126 13.9049 102.152 14.8508C102.154 14.9007 102.155 14.9514 102.155 15.0021C102.155 16.0175 101.879 16.8442 101.335 17.46C100.784 18.0821 99.9837 18.398 98.954 18.398C98.841 18.398 98.7324 18.3935 98.6248 18.3864C97.7527 18.325 97.0719 18.0144 96.5976 17.4582L96.5985 17.4573ZM123.023 6.43233C121.566 5.15176 119.632 4.50391 117.251 4.50391C114.344 4.50391 112.1 5.47035 110.582 7.37652C109.794 8.36609 109.208 9.53009 108.824 10.8543C108.464 12.0966 108.28 13.4813 108.28 15.0021C108.28 17.8943 108.938 20.2961 110.234 22.156C110.346 22.3171 110.46 22.4746 110.582 22.6277C110.613 22.6659 110.644 22.7033 110.675 22.7407C112.19 24.5721 114.402 25.5003 117.251 25.5003C120.101 25.5003 122.407 24.5285 123.934 22.6134C125.452 20.7055 126.222 18.1443 126.222 15.0021C126.222 11.8599 125.448 9.29515 123.92 7.37652C123.645 7.03124 123.345 6.71621 123.023 6.43322V6.43233ZM114.896 17.4573C114.354 16.8442 114.077 16.0175 114.077 15.0021C114.077 13.9867 114.348 13.1609 114.883 12.5451C115.424 11.9221 116.222 11.6062 117.251 11.6062C118.281 11.6062 119.081 11.9213 119.632 12.5442C120.149 13.1289 120.423 13.9049 120.45 14.8508C120.451 14.9007 120.452 14.9514 120.452 15.0021C120.452 16.0175 120.176 16.8442 119.632 17.46C119.082 18.0821 118.281 18.398 117.251 18.398C117.138 18.398 117.03 18.3935 116.922 18.3855C116.05 18.3241 115.369 18.0135 114.895 17.4573H114.896ZM148.005 21.2741C148.005 21.2741 148.005 21.2706 148.005 21.2688C148.005 21.2652 148.003 21.2626 148.002 21.2599C147.998 21.2492 147.994 21.2394 147.988 21.2296C147.988 21.2296 147.988 21.2279 147.987 21.227C147.981 21.2172 147.973 21.2092 147.964 21.2021C147.962 21.2003 147.959 21.1985 147.957 21.1967C147.949 21.1905 147.94 21.1851 147.931 21.1807C147.93 21.1807 147.928 21.1789 147.927 21.1789C147.916 21.1745 147.906 21.1718 147.894 21.17C147.892 21.17 147.889 21.17 147.885 21.17C147.875 21.17 147.865 21.17 147.854 21.17C147.853 21.17 147.852 21.17 147.851 21.17C147.839 21.1718 147.828 21.1762 147.818 21.1816C147.815 21.1825 147.812 21.1843 147.811 21.186C147.8 21.1923 147.789 21.1994 147.78 21.2092C147.71 21.283 147.625 21.3622 147.534 21.4432C147.488 21.4842 147.441 21.5242 147.393 21.5651C147.154 21.7671 146.898 21.9585 146.746 22.0581C146.687 22.0973 146.629 22.1347 146.573 22.1694C145.865 22.6125 145.507 22.7095 145.323 22.7318C145.323 22.7318 145.322 22.7318 145.321 22.7318C145.314 22.7318 145.308 22.7336 145.303 22.7336C145.281 22.7354 145.263 22.7371 145.247 22.738C145.245 22.738 145.242 22.738 145.241 22.738C145.241 22.738 145.241 22.738 145.24 22.738C145.235 22.738 145.232 22.7354 145.228 22.7336C145.225 22.7327 145.223 22.7327 145.22 22.7309C145.217 22.7282 145.215 22.7247 145.212 22.7202C145.21 22.7184 145.209 22.7167 145.208 22.714C145.206 22.7095 145.207 22.7051 145.207 22.7006C145.207 22.6989 145.206 22.6962 145.207 22.6944C145.209 22.6882 145.212 22.6829 145.219 22.6802C145.255 22.6633 145.286 22.6446 145.314 22.6259C145.468 22.5262 145.532 22.4168 145.532 22.4168C145.532 22.4168 145.524 22.4186 145.508 22.4221C145.507 22.4221 145.506 22.4221 145.504 22.423C145.498 22.4248 145.491 22.4257 145.482 22.4275C145.479 22.4275 145.475 22.4283 145.473 22.4292C145.465 22.431 145.455 22.4328 145.445 22.4346C145.441 22.4346 145.437 22.4363 145.433 22.4372C145.421 22.439 145.409 22.4417 145.396 22.4444C145.393 22.4444 145.389 22.4461 145.385 22.4461C145.358 22.4515 145.327 22.4568 145.294 22.4622C145.284 22.4639 145.273 22.4657 145.263 22.4675C145.257 22.4684 145.251 22.4693 145.245 22.4702C145.228 22.4728 145.21 22.4755 145.192 22.4782C145.184 22.4791 145.175 22.4808 145.167 22.4817C145.15 22.4844 145.132 22.4871 145.114 22.4889C145.104 22.4906 145.095 22.4915 145.085 22.4924C145.067 22.4951 145.049 22.4969 145.031 22.4995C145.02 22.5004 145.009 22.5022 144.999 22.5031C144.979 22.5058 144.958 22.5075 144.938 22.5102C144.928 22.5111 144.918 22.5129 144.908 22.5138C144.879 22.5164 144.851 22.5191 144.821 22.5218C144.818 22.5218 144.815 22.5218 144.813 22.5218C144.78 22.5245 144.748 22.5271 144.714 22.5298C144.704 22.5298 144.693 22.5307 144.683 22.5316C144.659 22.5333 144.636 22.5342 144.612 22.536C144.6 22.536 144.586 22.5369 144.573 22.5378C144.551 22.5387 144.529 22.5396 144.506 22.5405C144.492 22.5405 144.479 22.5405 144.465 22.5414C144.442 22.5414 144.42 22.5414 144.398 22.5414C144.389 22.5414 144.381 22.5414 144.372 22.5414C144.368 22.5414 144.364 22.5414 144.36 22.5414C144.312 22.5414 144.264 22.5405 144.215 22.5387C144.206 22.5387 144.198 22.5387 144.189 22.5378C144.14 22.536 144.09 22.5325 144.041 22.5289C144.039 22.5289 144.037 22.5289 144.036 22.5289C143.986 22.5245 143.936 22.5191 143.887 22.512C143.877 22.5111 143.868 22.5093 143.859 22.5084C143.81 22.5013 143.763 22.4933 143.716 22.4844C143.707 22.4826 143.698 22.4808 143.69 22.4791C143.642 22.4693 143.595 22.4577 143.548 22.4444C143.547 22.4444 143.546 22.4444 143.545 22.4444C143.499 22.431 143.454 22.4159 143.409 22.3999C143.401 22.3972 143.392 22.3936 143.384 22.391C143.342 22.3741 143.3 22.3563 143.26 22.3367C143.252 22.3331 143.244 22.3287 143.237 22.3251C143.196 22.3038 143.156 22.2815 143.118 22.2557C143.173 22.1098 143.223 21.9611 143.266 21.809C143.395 21.3542 143.465 20.8746 143.469 20.3789C143.469 20.2641 143.465 20.1502 143.459 20.0363C143.438 19.6732 143.383 19.3199 143.296 18.9791C143.284 18.9292 143.271 18.8803 143.257 18.8314C143.236 18.761 143.215 18.6916 143.193 18.6222C143.107 18.3624 143.002 18.1114 142.88 17.8703C142.847 17.8062 142.812 17.7421 142.777 17.6798C142.524 17.2251 142.207 16.8104 141.839 16.4482C141.66 16.2711 141.468 16.1065 141.265 15.9561C140.86 15.6544 140.411 15.4079 139.931 15.2264C140.512 15.0208 141.034 14.7253 141.487 14.3569C141.588 14.275 141.685 14.1896 141.779 14.1006C141.826 14.0561 141.871 14.0107 141.917 13.9654C142.008 13.8737 142.094 13.7776 142.177 13.6797C142.538 13.2526 142.829 12.7676 143.045 12.2425C143.277 11.6783 143.422 11.0678 143.469 10.4298C143.492 10.1165 143.488 9.76413 143.447 9.39037C143.44 9.33787 143.434 9.28625 143.427 9.23286C143.414 9.13675 143.398 9.03975 143.378 8.94186C143.364 8.86978 143.348 8.79681 143.331 8.72383C143.29 8.54941 143.24 8.37321 143.179 8.19612C143.139 8.08132 143.095 7.96564 143.045 7.85084C142.994 7.73248 142.939 7.61413 142.878 7.49755C142.848 7.4397 142.816 7.38186 142.784 7.32491C142.587 6.9814 142.341 6.6468 142.038 6.33444C142.038 6.33444 142.036 6.33266 142.035 6.33178C141.428 5.70884 140.588 5.17401 139.442 4.82962C139.347 4.80114 139.249 4.77355 139.148 4.74775C138.948 4.69613 138.74 4.64897 138.523 4.60892C138.414 4.58846 138.303 4.56977 138.19 4.55286C137.623 4.46743 136.999 4.42026 136.312 4.42026C136.287 4.42026 136.188 4.42026 136.041 4.42026C135.967 4.42026 135.882 4.42026 135.788 4.42026C135.383 4.42026 134.822 4.41848 134.394 4.41759C134.296 4.41759 134.204 4.41759 134.123 4.41759C133.933 4.41759 133.802 4.41759 133.771 4.41759C133.327 4.41759 132.91 4.43895 132.519 4.48078C130.955 4.6463 129.803 5.12507 128.954 5.78271C128.849 5.86458 128.747 5.95001 128.65 6.03722C128.553 6.12443 128.461 6.21431 128.373 6.30686C128.022 6.67617 127.74 7.08107 127.513 7.50556C127.427 7.66485 127.351 7.82681 127.281 7.99055C126.959 8.73896 126.788 9.52475 126.695 10.2634C126.592 11.0865 126.587 11.851 126.587 12.4392V25.8029H126.699H137.937C138.758 25.8029 139.513 25.6453 140.167 25.3704C140.312 25.309 140.453 25.2422 140.588 25.1701C140.925 24.9895 141.229 24.775 141.492 24.5347C141.493 24.5338 141.496 24.5338 141.499 24.533H141.501C141.507 24.533 141.514 24.533 141.523 24.5356C141.524 24.5356 141.526 24.5356 141.528 24.5356C141.539 24.5374 141.55 24.5392 141.565 24.5427H141.567C141.582 24.5454 141.599 24.5499 141.618 24.5534C141.62 24.5534 141.622 24.5543 141.624 24.5552C141.644 24.5597 141.668 24.565 141.693 24.5703C141.716 24.5757 141.741 24.581 141.766 24.5864C141.771 24.5872 141.775 24.5881 141.781 24.589C141.807 24.5944 141.836 24.6006 141.865 24.6068C141.87 24.6077 141.875 24.6086 141.88 24.6095C141.911 24.6157 141.943 24.622 141.977 24.6282C141.982 24.6282 141.986 24.63 141.99 24.6308C142.025 24.638 142.063 24.6442 142.103 24.6513C142.104 24.6513 142.105 24.6513 142.106 24.6513C142.145 24.6584 142.186 24.6647 142.228 24.6718C142.232 24.6718 142.235 24.6727 142.239 24.6736C142.28 24.6798 142.323 24.6869 142.367 24.6931C142.373 24.694 142.38 24.6949 142.387 24.6958C142.43 24.702 142.475 24.7074 142.52 24.7136C142.528 24.7145 142.536 24.7154 142.544 24.7163C142.59 24.7216 142.638 24.727 142.686 24.7323C142.694 24.7323 142.702 24.7341 142.711 24.735C142.76 24.7394 142.81 24.7448 142.862 24.7483C142.869 24.7483 142.876 24.7492 142.883 24.7501C142.937 24.7545 142.992 24.7581 143.048 24.7608C143.051 24.7608 143.054 24.7608 143.057 24.7608C143.113 24.7634 143.171 24.7661 143.229 24.7679C143.234 24.7679 143.238 24.7679 143.243 24.7679C143.301 24.7697 143.359 24.7706 143.419 24.7706C143.429 24.7706 143.438 24.7706 143.449 24.7706C143.469 24.7706 143.489 24.7706 143.509 24.7706C143.526 24.7706 143.544 24.7706 143.561 24.7706C143.582 24.7706 143.602 24.7697 143.623 24.7688C143.641 24.7688 143.657 24.7688 143.675 24.767C143.696 24.767 143.717 24.7652 143.738 24.7643C143.755 24.7643 143.773 24.7626 143.791 24.7617C143.811 24.7608 143.833 24.759 143.854 24.7581C143.872 24.7572 143.891 24.7563 143.908 24.7545C143.931 24.7528 143.953 24.751 143.976 24.7492C143.993 24.7474 144.01 24.7465 144.028 24.7448C144.053 24.743 144.078 24.7403 144.104 24.7376C144.119 24.7359 144.134 24.735 144.149 24.7332C144.164 24.7314 144.178 24.7296 144.193 24.7278C144.218 24.7252 144.244 24.7225 144.27 24.7189C144.281 24.7172 144.293 24.7154 144.304 24.7145C144.334 24.7109 144.363 24.7065 144.392 24.7029C144.408 24.7003 144.425 24.6976 144.442 24.6949C144.467 24.6914 144.492 24.6878 144.517 24.6834C144.535 24.6807 144.553 24.6771 144.57 24.6736C144.594 24.6691 144.619 24.6656 144.642 24.6611C144.66 24.6575 144.679 24.654 144.699 24.6495C144.722 24.6451 144.745 24.6406 144.768 24.6353C144.788 24.6308 144.807 24.6264 144.827 24.6219C144.85 24.6166 144.872 24.6122 144.895 24.6068C144.915 24.6024 144.935 24.597 144.955 24.5926C144.977 24.5872 145 24.5819 145.023 24.5757C145.043 24.5703 145.063 24.565 145.083 24.5597C145.105 24.5534 145.128 24.5472 145.152 24.541C145.168 24.5365 145.184 24.5321 145.2 24.5267C145.204 24.5258 145.209 24.5241 145.212 24.5232C145.235 24.5161 145.257 24.5098 145.281 24.5027C145.301 24.4965 145.322 24.4894 145.342 24.4831C145.364 24.476 145.387 24.4689 145.41 24.4609C145.43 24.4538 145.451 24.4466 145.472 24.4395C145.494 24.4315 145.516 24.4235 145.539 24.4155C145.559 24.4075 145.581 24.4004 145.601 24.3924C145.623 24.3835 145.645 24.3754 145.669 24.3665C145.689 24.3585 145.71 24.3496 145.731 24.3416C145.753 24.3327 145.775 24.3229 145.798 24.314C145.819 24.3051 145.839 24.2962 145.861 24.2873C145.883 24.2776 145.905 24.2678 145.928 24.2571C145.948 24.2473 145.969 24.2375 145.99 24.2277C146.012 24.217 146.034 24.2064 146.057 24.1957C146.078 24.1859 146.099 24.1752 146.12 24.1645C146.142 24.153 146.164 24.1414 146.187 24.1298C146.208 24.1192 146.228 24.1085 146.25 24.0969C146.272 24.0844 146.294 24.072 146.317 24.0595C146.338 24.048 146.358 24.0364 146.379 24.0248C146.401 24.0115 146.424 23.9981 146.446 23.9848C146.467 23.9723 146.487 23.9608 146.507 23.9483C146.529 23.9349 146.551 23.9198 146.574 23.9065C146.594 23.8931 146.615 23.8807 146.635 23.8673C146.657 23.8531 146.68 23.8371 146.702 23.8219C146.721 23.8086 146.742 23.7952 146.761 23.781C146.785 23.765 146.807 23.749 146.829 23.732C146.849 23.7178 146.868 23.7045 146.888 23.6893C146.911 23.6724 146.933 23.6546 146.956 23.6377C146.975 23.6235 146.995 23.6083 147.014 23.5932C147.037 23.5745 147.06 23.5558 147.084 23.5372C147.102 23.522 147.12 23.5078 147.139 23.4927C147.163 23.4722 147.187 23.4517 147.211 23.4304C147.228 23.4152 147.245 23.401 147.262 23.3859C147.288 23.3627 147.314 23.3387 147.34 23.3156C147.355 23.3013 147.37 23.2889 147.384 23.2746C147.422 23.2399 147.458 23.2034 147.495 23.167C147.498 23.1634 147.501 23.1607 147.504 23.1572C147.508 23.1536 147.513 23.1474 147.52 23.1403C147.521 23.1394 147.523 23.1376 147.524 23.1367C147.529 23.1305 147.536 23.1242 147.542 23.1171C147.545 23.1136 147.549 23.1091 147.553 23.1047C147.557 23.0993 147.561 23.094 147.567 23.0886C147.571 23.0842 147.575 23.0789 147.578 23.0744C147.583 23.0691 147.587 23.0637 147.591 23.0593C147.594 23.0548 147.597 23.0504 147.601 23.0459C147.604 23.0406 147.609 23.0353 147.612 23.0308C147.615 23.0272 147.617 23.0237 147.619 23.0201C147.622 23.0157 147.626 23.0112 147.627 23.0077C147.629 23.005 147.629 23.0023 147.63 23.0005C147.631 22.9979 147.633 22.9943 147.633 22.9916C147.633 22.9899 147.631 22.9899 147.63 22.989C147.628 22.9881 147.628 22.9854 147.625 22.9863C147.601 22.9899 147.579 22.9916 147.558 22.9934C147.552 22.9934 147.546 22.9943 147.54 22.9952C147.525 22.9961 147.51 22.9979 147.496 22.9979C147.49 22.9979 147.485 22.9979 147.48 22.9979C147.463 22.9979 147.447 22.9988 147.431 22.9988C147.431 22.9988 147.431 22.9988 147.431 22.9988C147.431 22.9988 147.429 22.9988 147.428 22.9988C147.414 22.9988 147.4 22.9988 147.389 22.9979C147.386 22.9979 147.383 22.9979 147.382 22.9979C147.37 22.9979 147.36 22.9961 147.351 22.9952C147.35 22.9952 147.349 22.9952 147.347 22.9952C147.34 22.9943 147.334 22.9925 147.328 22.9916C147.327 22.9916 147.326 22.9916 147.326 22.9916C147.32 22.9899 147.318 22.9881 147.315 22.9863C147.315 22.9863 147.315 22.9863 147.314 22.9854C147.313 22.9836 147.312 22.9819 147.314 22.9801C147.46 22.8475 147.576 22.7024 147.668 22.5529C147.738 22.4408 147.794 22.3269 147.839 22.213C147.9 22.0617 147.941 21.9122 147.967 21.7716C147.974 21.7369 147.98 21.7022 147.985 21.6684C147.996 21.6007 148.003 21.5367 148.008 21.4753C148.013 21.4147 148.016 21.3578 148.017 21.3062C148.017 21.2946 148.015 21.283 148.013 21.2724L148.005 21.2741ZM132.498 8.53428H135.024C135.625 8.53428 136.176 8.73273 136.605 9.06378C136.666 9.11094 136.725 9.16078 136.781 9.21328C136.893 9.31829 136.996 9.43309 137.085 9.55678C137.129 9.61819 137.171 9.68226 137.209 9.74811C137.266 9.84689 137.317 9.94923 137.359 10.056C137.457 10.3043 137.509 10.5731 137.509 10.8534C137.509 10.9468 137.503 11.0385 137.491 11.1292C137.475 11.2529 137.449 11.374 137.413 11.4905C137.304 11.8492 137.104 12.1731 136.838 12.4374C136.787 12.4872 136.735 12.5353 136.68 12.5816C136.625 12.6278 136.568 12.6714 136.509 12.7124C136.095 13.0007 135.581 13.1716 135.024 13.1716H132.498V8.53428ZM132.498 21.9238V17.2865H135.024C135.625 17.2865 136.176 17.4849 136.605 17.816C136.666 17.8631 136.725 17.913 136.781 17.9655C136.893 18.0705 136.996 18.1853 137.085 18.309C137.129 18.3704 137.171 18.4345 137.209 18.5003C137.247 18.5662 137.282 18.6338 137.314 18.7032C137.33 18.7379 137.344 18.7726 137.359 18.8082C137.457 19.0565 137.509 19.3252 137.509 19.6056C137.509 19.699 137.503 19.7907 137.491 19.8814C137.475 20.0051 137.449 20.1262 137.413 20.2427C137.304 20.6014 137.104 20.9253 136.838 21.1896C136.787 21.2394 136.735 21.2875 136.68 21.3338C136.625 21.38 136.568 21.4236 136.509 21.4646C136.095 21.7529 135.581 21.9238 135.024 21.9238H132.498Z" fill="#FF5129"/>
<path d="M13.7988 19.741C13.7988 21.3046 12.4533 22.5744 10.7838 22.6003V21.7264C10.7838 21.3838 10.5062 21.1052 10.1627 21.1052H9.90818C9.56557 21.1052 9.28703 21.3829 9.28703 21.7264V22.6011H7.98688V21.7264C7.98688 21.3838 7.70923 21.1052 7.36573 21.1052H7.11121C6.7686 21.1052 6.49006 21.3829 6.49006 21.7264V22.6003C4.8206 22.5744 3.47507 21.3046 3.47507 19.741C3.47507 18.1614 4.8473 16.8808 6.54079 16.8808H6.92878V17.7556C6.92878 18.0982 7.20643 18.3768 7.54994 18.3768H7.80445C8.14706 18.3768 8.4256 18.0991 8.4256 17.7556V16.8808H8.8483V17.7556C8.8483 18.0982 9.12596 18.3768 9.46946 18.3768H9.72397C10.0666 18.3768 10.3451 18.0991 10.3451 17.7556V16.8808H10.7331C12.4266 16.8808 13.7988 18.1614 13.7988 19.741ZM5.93298 8.61009C5.94277 8.58962 5.95256 8.56915 5.96324 8.54958C5.98638 8.5033 6.0104 8.45703 6.03621 8.41164C6.046 8.39384 6.05668 8.37605 6.06647 8.35825C6.07537 8.34312 6.08516 8.32799 6.09494 8.31197C6.11096 8.28617 6.12787 8.26036 6.14478 8.23455C6.15101 8.22476 6.15813 8.21497 6.16525 8.20518C6.1866 8.17404 6.20796 8.14378 6.23021 8.11442C6.23466 8.10908 6.23822 8.10285 6.24267 8.09751C6.26848 8.0628 6.29517 8.02898 6.32276 7.99606L6.32632 7.99161C6.47849 7.8074 6.65113 7.64277 6.84157 7.50038C6.87717 7.47368 6.91366 7.44788 6.95014 7.42296C6.95726 7.41851 6.96438 7.41406 6.97061 7.40872C7.00087 7.38825 7.03112 7.36868 7.06227 7.34999C7.07384 7.34287 7.08452 7.33575 7.09609 7.32952C7.12278 7.3135 7.14948 7.29837 7.17707 7.28325C7.1922 7.27524 7.20643 7.26723 7.22156 7.25922C7.24559 7.24676 7.26962 7.2343 7.29364 7.22184L7.29809 7.21917C7.31411 7.21116 7.33102 7.20315 7.34704 7.19514C7.36751 7.18536 7.38886 7.17646 7.40933 7.16667C7.43069 7.15688 7.45294 7.14709 7.47429 7.1373C7.48319 7.13374 7.49298 7.13018 7.50188 7.12662C7.56862 7.09904 7.63715 7.07412 7.70656 7.05187C7.71012 7.05098 7.71457 7.0492 7.71813 7.04831C7.74928 7.03852 7.78131 7.02873 7.81335 7.01983C7.82492 7.01627 7.83738 7.01271 7.84894 7.01005C7.8792 7.00204 7.90946 6.99492 7.93971 6.9878C7.95395 6.98424 7.96819 6.98068 7.98243 6.97801C8.0118 6.97178 8.04116 6.96555 8.07053 6.96021C8.08655 6.95754 8.10346 6.95398 8.11947 6.95131C8.14795 6.94686 8.17643 6.94241 8.2049 6.93796C8.22359 6.93529 8.24228 6.93262 8.26097 6.93084C8.28767 6.92728 8.31436 6.92461 8.34195 6.92194C8.36509 6.92016 8.38823 6.91839 8.41136 6.91661C8.4345 6.91483 8.45764 6.91305 8.48166 6.91216C8.52171 6.91038 8.56176 6.90949 8.60269 6.90949C8.60892 6.90949 8.61604 6.90949 8.62227 6.90949H8.62494C8.6721 6.90949 8.71927 6.91127 8.76554 6.91305C8.7869 6.91394 8.80737 6.91572 8.82873 6.9175C8.85186 6.91928 8.875 6.92105 8.89814 6.92283C8.93462 6.92639 8.97111 6.92995 9.00671 6.93529C9.01027 6.93529 9.01383 6.93618 9.01739 6.93707C9.20427 6.96199 9.38581 7.00382 9.56023 7.06255C10.7456 7.45678 11.6034 8.57538 11.6034 9.89155C11.6034 11.5352 10.2659 12.8727 8.62227 12.8727C6.97862 12.8727 5.64109 11.5352 5.64109 9.89155C5.64109 9.53292 5.70606 9.19031 5.82263 8.87172C5.82619 8.86104 5.83064 8.85036 5.8342 8.84058C5.85289 8.79074 5.87336 8.7418 5.89472 8.69285C5.90629 8.66615 5.91874 8.63946 5.9312 8.61276L5.93298 8.61009ZM8.62405 12.5141C10.0719 12.5141 11.2493 11.3359 11.2493 9.88888C11.2493 9.77675 11.2413 9.6673 11.2279 9.55873H9.78537C9.81474 9.66374 9.83165 9.77408 9.83165 9.88888C9.83165 10.5563 9.29059 11.0974 8.62316 11.0974C7.95573 11.0974 7.41467 10.5563 7.41467 9.88888C7.41467 9.77408 7.43158 9.66374 7.46095 9.55873H6.01841C6.00506 9.66641 5.99706 9.77675 5.99706 9.88888C5.99706 11.3368 7.17529 12.5141 8.62227 12.5141H8.62405ZM6.12965 9.07551C6.1163 9.11734 6.10295 9.16005 6.09139 9.20277H11.146C10.839 8.14111 9.92153 7.37046 8.85364 7.27346C8.84475 7.27346 8.83585 7.27257 8.82695 7.27168C8.76198 7.26634 8.69702 7.26367 8.63117 7.26367H8.62761C8.55909 7.26367 8.48967 7.26723 8.42204 7.27257C8.41314 7.27257 8.40335 7.27346 8.39445 7.27435C8.32682 7.28058 8.26008 7.28858 8.19423 7.29926C8.18889 7.29926 8.18444 7.30104 8.1791 7.30193C8.04205 7.32596 7.90946 7.35978 7.78042 7.40338C7.77508 7.40516 7.76885 7.40694 7.76351 7.40872C7.70122 7.43097 7.63893 7.455 7.57841 7.4808C7.57218 7.48347 7.56684 7.48614 7.56062 7.48881C7.50099 7.51551 7.44226 7.54399 7.3853 7.57424L7.37996 7.57691C7.32568 7.60628 7.27229 7.63832 7.22067 7.67124C7.20821 7.67925 7.19576 7.68726 7.1833 7.69527C7.13524 7.72731 7.08808 7.76023 7.04269 7.79494C7.02845 7.80562 7.0151 7.8163 7.00176 7.82698C6.96349 7.85723 6.92611 7.88838 6.89052 7.92042C6.87628 7.93287 6.86204 7.94533 6.8478 7.95868C6.81132 7.9925 6.77572 8.02809 6.74012 8.06369C6.72589 8.07793 6.71165 8.09306 6.6983 8.1073C6.66092 8.14734 6.62444 8.18917 6.58973 8.23188C6.57905 8.24523 6.56837 8.25858 6.55769 8.27282C6.5221 8.31909 6.48739 8.36537 6.45447 8.41342C6.45269 8.41609 6.45091 8.41787 6.45002 8.42054C6.41264 8.47572 6.37793 8.53356 6.34412 8.5914C6.34145 8.59585 6.33878 8.6003 6.33611 8.60475C6.30763 8.65637 6.28094 8.70887 6.25513 8.76226C6.24178 8.78985 6.23021 8.81833 6.21775 8.84591C6.20707 8.87083 6.19639 8.89664 6.1866 8.92156C6.17237 8.95715 6.15902 8.99275 6.14656 9.02923C6.14122 9.04347 6.13677 9.0586 6.13232 9.07284L6.12965 9.07551ZM41.7071 17.4566C41.1651 16.8435 40.8884 16.0168 40.8884 15.0014C40.8884 13.986 41.1598 13.1602 41.6946 12.5444C42.2357 11.9214 43.033 11.6055 44.0627 11.6055C45.0923 11.6055 45.8923 11.9205 46.4431 12.5435C46.9602 13.1281 47.2343 13.9041 47.261 14.8501C47.2627 14.8999 47.2636 14.9507 47.2636 15.0014C47.2636 16.0168 46.9878 16.8435 46.4431 17.4593C45.8932 18.0813 45.0923 18.3972 44.0627 18.3972C43.9496 18.3972 43.8411 18.3928 43.7334 18.3848C42.8613 18.3234 42.1814 18.0128 41.7071 17.4566ZM46.9041 14.8198C46.8427 14.8172 46.7813 14.8163 46.7181 14.8163C45.7374 14.8163 44.9926 15.1091 44.4845 15.6937C43.9772 16.2775 43.7236 17.0553 43.7218 18.027C43.8322 18.0359 43.9452 18.0404 44.0627 18.0404C44.9855 18.0404 45.6965 17.7654 46.1762 17.2226C46.6612 16.6735 46.9077 15.926 46.9077 15.0005C46.9077 14.9391 46.9068 14.8795 46.9041 14.8198ZM60.0044 17.4566C59.4624 16.8435 59.1857 16.0168 59.1857 15.0014C59.1857 13.986 59.4571 13.1602 59.9919 12.5444C60.533 11.9214 61.3303 11.6055 62.3599 11.6055C63.3896 11.6055 64.1896 11.9205 64.7404 12.5435C65.2575 13.1281 65.5316 13.9041 65.5583 14.8501C65.56 14.8999 65.5609 14.9507 65.5609 15.0014C65.5609 16.0159 65.2851 16.8435 64.7404 17.4593C64.1896 18.0813 63.3896 18.3972 62.3599 18.3972C62.2469 18.3972 62.1384 18.3928 62.0307 18.3857C61.1586 18.3243 60.4778 18.0137 60.0035 17.4575L60.0044 17.4566ZM65.2014 14.8198C65.14 14.8172 65.0786 14.8163 65.0154 14.8163C64.0347 14.8163 63.2899 15.1091 62.7818 15.6937C62.2745 16.2775 62.0209 17.0553 62.0191 18.027C62.1295 18.0359 62.2425 18.0404 62.3599 18.0404C63.2828 18.0404 63.9938 17.7654 64.4735 17.2226C64.9585 16.6735 65.205 15.926 65.205 15.0005C65.205 14.9391 65.2041 14.8795 65.2014 14.8198ZM78.3017 17.4566C77.7597 16.8435 77.483 16.0168 77.483 15.0014C77.483 13.986 77.7544 13.1602 78.2892 12.5444C78.8303 11.9214 79.6267 11.6055 80.6572 11.6055C81.6878 11.6055 82.4869 11.9205 83.0377 12.5435C83.5548 13.1281 83.8289 13.9041 83.8556 14.8501C83.8573 14.8999 83.8582 14.9507 83.8582 15.0014C83.8582 16.0168 83.5824 16.8435 83.0377 17.4593C82.4869 18.0813 81.6869 18.3972 80.6572 18.3972C80.5442 18.3972 80.4357 18.3928 80.328 18.3857C79.4559 18.3243 78.7751 18.0137 78.3008 17.4575L78.3017 17.4566ZM83.4987 14.8198C83.4373 14.8172 83.3759 14.8163 83.3127 14.8163C82.332 14.8163 81.5872 15.1091 81.0791 15.6937C80.5718 16.2775 80.3182 17.0553 80.3164 18.027C80.4268 18.0359 80.5398 18.0404 80.6572 18.0404C81.5801 18.0404 82.2911 17.7654 82.7708 17.2226C83.2558 16.6735 83.5014 15.926 83.5014 15.0005C83.5014 14.9391 83.5014 14.8795 83.4987 14.8198ZM96.599 17.4566C96.057 16.8435 95.7803 16.0168 95.7803 15.0014C95.7803 13.986 96.0517 13.1602 96.5865 12.5444C97.1276 11.9214 97.924 11.6055 98.9545 11.6055C99.985 11.6055 100.784 11.9205 101.335 12.5435C101.852 13.1281 102.126 13.9041 102.153 14.8501C102.155 14.8999 102.156 14.9507 102.156 15.0014C102.156 16.0168 101.88 16.8435 101.335 17.4593C100.784 18.0813 99.9842 18.3972 98.9545 18.3972C98.8415 18.3972 98.733 18.3928 98.6253 18.3857C97.7532 18.3243 97.0724 18.0137 96.5981 17.4575L96.599 17.4566ZM101.796 14.8198C101.735 14.8172 101.673 14.8163 101.61 14.8163C100.629 14.8163 99.8845 15.1091 99.3764 15.6937C98.8691 16.2775 98.6155 17.0553 98.6137 18.027C98.7241 18.0359 98.8371 18.0404 98.9545 18.0404C99.8774 18.0404 100.588 17.7654 101.068 17.2226C101.553 16.6735 101.799 15.926 101.799 15.0005C101.799 14.9391 101.799 14.8795 101.796 14.8198ZM114.896 17.4566C114.354 16.8435 114.078 16.0168 114.078 15.0014C114.078 13.986 114.349 13.1602 114.884 12.5444C115.425 11.9214 116.222 11.6055 117.252 11.6055C118.281 11.6055 119.081 11.9205 119.632 12.5435C120.149 13.1281 120.423 13.9041 120.45 14.8501C120.452 14.8999 120.453 14.9507 120.453 15.0014C120.453 16.0168 120.177 16.8435 119.632 17.4593C119.082 18.0813 118.281 18.3972 117.252 18.3972C117.139 18.3972 117.03 18.3928 116.923 18.3848C116.05 18.3234 115.371 18.0128 114.896 17.4566ZM120.093 14.8198C120.032 14.8172 119.97 14.8163 119.907 14.8163C118.927 14.8163 118.182 15.1091 117.674 15.6937C117.166 16.2775 116.913 17.0553 116.911 18.027C117.021 18.0359 117.134 18.0404 117.252 18.0404C118.175 18.0404 118.886 17.7654 119.365 17.2226C119.85 16.6735 120.097 15.926 120.097 15.0005C120.097 14.9391 120.096 14.8795 120.093 14.8198ZM148.452 25.4551C148.523 25.4524 148.559 25.5396 148.509 25.5903C145.996 28.1328 143.423 27.3915 143.369 27.4413C142.525 28.212 141.272 28.3998 139.814 28.3998H128.464C128.464 28.3998 126.469 26.1421 126.421 26.118C124.868 27.8453 122.694 28.4647 119.905 28.4647C114.529 28.4647 110.72 23.3691 110.305 22.8476C110.237 22.7613 110.171 22.6723 110.105 22.5833C109.719 23.7785 109.162 24.8366 108.431 25.755C106.861 27.7243 104.641 28.4087 101.663 28.4087C98.684 28.4087 96.178 27.5561 94.5184 25.6802C94.1446 25.2575 92.4218 23.3691 92.0062 22.8476C91.9377 22.7613 91.8718 22.6723 91.8059 22.5833C91.4197 23.7785 90.8627 24.8366 90.132 25.755C88.5623 27.7243 86.2886 28.4042 83.3109 28.4042C80.3333 28.4042 78.0018 27.6923 76.359 25.8012C76.0965 25.4987 73.5736 22.6723 73.5078 22.5833C73.1216 23.7785 72.5645 24.8366 71.8339 25.755C70.2641 27.7243 67.9904 28.3971 65.0127 28.3971C62.0351 28.3971 59.765 27.7297 58.205 25.7701C58.0493 25.5743 57.3614 24.8312 56.8087 24.2101C56.2926 23.8239 55.8254 23.37 55.4107 22.8485C55.3422 22.7622 55.2763 22.6732 55.2105 22.5842C54.8242 23.7794 54.2672 24.8375 53.5366 25.7559C51.9668 27.7252 49.6931 28.406 46.7155 28.406C43.7378 28.406 41.6163 27.6024 39.9077 25.771C39.6959 25.5441 37.5281 23.37 37.1134 22.8494C36.1585 21.6507 35.4902 20.2091 35.1093 18.545L33.1613 21.1319L33.1471 21.1488C32.5073 21.8314 32.1415 22.8112 32.1424 23.8417C32.1433 24.728 32.1442 25.8208 32.1451 26.7143C32.146 27.646 31.5195 28.4015 30.747 28.4015H27.1011C26.6642 28.4015 26.2744 28.1604 26.0181 27.7822C25.8659 27.557 23.4801 25.1596 23.4267 25.1062C23.0716 24.7511 22.8687 24.2314 22.8696 23.6815L22.8723 20.8089C22.8732 19.8932 22.5715 19.0175 22.0384 18.3777C21.9993 18.3305 19.2157 14.5315 19.1703 14.4603C18.7387 15.5798 17.9048 16.7322 16.8334 17.3391C16.8023 17.3569 16.7711 17.3739 16.7391 17.3908C16.772 17.4548 16.8031 17.5198 16.8334 17.5848C16.9518 17.8411 17.0523 18.1071 17.1315 18.3803C18.5625 19.3752 19.4996 21.0322 19.4969 22.9082C19.4924 25.9294 16.9375 28.4015 13.9154 28.4015H3.71534C3.07017 28.4015 2.45346 28.1346 2.01118 27.6647C1.23519 26.8389 0.0818711 25.6117 0.0614033 25.5939C0.0240274 25.561 0 25.5129 0 25.4595V9.78921C0 9.00076 0.175311 8.24612 0.489447 7.56356C1.20404 6.01068 2.64123 4.83423 4.39078 4.51209C4.29022 4.21308 4.20924 3.94522 4.1425 3.70584C3.91023 2.87111 3.86307 2.41103 3.8604 2.38522C3.83726 2.14495 3.93693 1.92692 4.11491 1.83081C4.22615 1.7703 4.46108 1.70711 4.78145 1.96163C4.81971 1.9901 5.64732 2.61303 6.57193 3.70673C6.73301 3.89805 6.89764 4.10273 7.06138 4.32165C7.08363 4.11074 7.10943 3.90517 7.1388 3.70673C7.41645 1.82992 7.97976 0.54401 8.00646 0.482607C8.17287 0.0732517 8.43361 0.00472917 8.57421 0.000279653C8.81093 -0.00772947 9.04141 0.156903 9.16333 0.415864C9.18647 0.465699 9.68837 1.54337 10.0799 3.70584C10.1173 3.91051 10.1529 4.12498 10.1876 4.34924C10.3585 4.11964 10.5302 3.90517 10.6984 3.70584C11.6239 2.61214 12.4515 1.98921 12.4933 1.95807C12.8093 1.70622 13.0442 1.7703 13.1554 1.83081C13.3334 1.92692 13.4331 2.14495 13.4099 2.38611C13.4073 2.41192 13.361 2.872 13.1287 3.70673C13.0602 3.95323 12.9766 4.22999 12.8716 4.54056C14.5606 4.87784 15.9399 5.90212 16.7053 7.26723C16.7471 7.3224 16.7907 7.38202 16.8361 7.44254C16.8895 7.51462 16.9455 7.58937 17.0043 7.66857V4.98107C17.0043 4.7488 17.1751 4.55925 17.3843 4.55925H22.3001C22.9212 4.55925 23.4623 4.96861 23.7426 5.57018C24.4981 6.39423 25.6915 7.98093 25.8775 8.16247C26.2103 8.48639 26.423 8.98296 26.423 9.53915V12.903C26.423 12.9688 26.4248 13.032 26.4266 13.0961C26.7861 13.0881 27.3752 12.9946 27.8522 12.5257C28.3995 11.9882 28.6771 11.0947 28.6771 9.87108V6.50725C28.6771 5.43403 29.4157 4.56014 30.3226 4.56014H35.2384C35.4288 4.56014 35.5854 4.71677 35.613 4.92055C35.9503 5.30588 36.7138 6.22782 37.2967 6.93707C38.8799 5.08696 41.1536 4.1499 44.0627 4.1499C46.9717 4.1499 49.4208 5.16172 51.0101 7.15688C51.1142 7.28769 51.2139 7.42118 51.3109 7.55734C52.0762 8.47216 53.315 10.0357 53.5259 10.3009C53.5757 10.3632 53.6229 10.4291 53.6709 10.4922C54.0678 9.23213 54.648 8.11708 55.4125 7.15688C57.001 5.16172 59.3387 4.1499 62.3599 4.1499C65.3812 4.1499 67.7181 5.16172 69.3074 7.15688C69.4115 7.28769 69.5112 7.42118 69.6082 7.55734C70.3735 8.47216 71.6123 10.0357 71.8232 10.3009C71.873 10.3632 71.9202 10.4291 71.9682 10.4922C72.3651 9.23213 72.9453 8.11708 73.7098 7.15688C75.2982 5.16172 77.636 4.1499 80.6572 4.1499C83.6785 4.1499 86.0154 5.16172 87.6047 7.15688C87.7088 7.28769 87.8085 7.42118 87.9055 7.55734C88.6708 8.47216 89.9096 10.0357 90.1205 10.3009C90.1703 10.3632 90.2175 10.4291 90.2655 10.4922C90.6624 9.23213 91.2426 8.11708 92.0071 7.15688C93.5955 5.16172 95.9333 4.1499 98.9545 4.1499C101.976 4.1499 104.313 5.16172 105.902 7.15688C106.006 7.28769 106.106 7.42118 106.203 7.55734C106.968 8.47216 108.207 10.0357 108.418 10.3009C108.468 10.3632 108.515 10.4291 108.563 10.4922C108.96 9.23213 109.54 8.11708 110.304 7.15688C111.893 5.16172 114.231 4.1499 117.252 4.1499C120.273 4.1499 122.61 5.16172 124.199 7.15688C124.303 7.28769 124.403 7.42118 124.5 7.55734C125.072 8.24078 125.909 9.28731 126.383 9.88354C126.8 7.25388 128.307 4.06625 133.766 4.06625C133.834 4.06625 134.446 4.06714 135.052 4.06803C135.649 4.06892 136.241 4.06981 136.306 4.06981C138.384 4.06981 140.078 4.48895 141.341 5.31478C142.283 5.93059 142.97 6.75642 143.388 7.7718L144.591 10.1211C144.787 10.4451 144.94 10.7779 145.055 11.1107C145.332 11.9125 145.392 12.7072 145.346 13.3426C145.221 15.045 144.401 16.5587 143.07 17.4913C143.112 17.5652 144.011 18.0884 144.73 19.4019C145.613 21.0162 145.185 21.9213 145.227 22.1188C145.361 22.0966 145.448 22.077 145.448 22.077C145.474 22.0708 145.501 22.0681 145.528 22.0681C145.633 22.0681 145.735 22.1153 145.803 22.1989C146.019 22.0948 146.27 21.9488 146.549 21.7655C146.782 21.6125 147.266 21.2351 147.523 20.9682C147.616 20.8712 147.741 20.8169 147.875 20.8169C148.01 20.8169 148.135 20.8712 148.228 20.9655C148.28 21.0189 148.317 21.083 148.34 21.1515C148.34 21.1515 149.001 23.7162 149 23.766C148.989 24.1816 148.879 24.9087 148.296 25.439C148.283 25.4506 148.341 25.464 148.454 25.4595L148.452 25.4551ZM110.675 22.7391C112.191 24.5705 114.402 25.4987 117.252 25.4987C120.101 25.4987 122.408 24.5269 123.934 22.6118C125.452 20.7039 126.223 18.1427 126.223 15.0005C126.223 11.8582 125.449 9.29354 123.921 7.37491C123.646 7.02962 123.346 6.7146 123.024 6.43161C121.567 5.15104 119.632 4.50319 117.252 4.50319C114.345 4.50319 112.1 5.46962 110.583 7.37579C109.794 8.36537 109.209 9.52936 108.824 10.8535C108.464 12.0958 108.281 13.4805 108.281 15.0014C108.281 17.8936 108.938 20.2954 110.234 22.1553C110.346 22.3164 110.461 22.4739 110.583 22.627C110.613 22.6652 110.644 22.7017 110.675 22.7391ZM92.3782 22.7391C93.8937 24.5705 96.1051 25.4987 98.9545 25.4987C101.804 25.4987 104.111 24.5269 105.637 22.6118C107.155 20.7039 107.926 18.1427 107.926 15.0005C107.926 11.8582 107.151 9.29354 105.623 7.37491C105.348 7.02962 105.049 6.7146 104.726 6.43161C103.27 5.15104 101.335 4.50319 98.9545 4.50319C96.0472 4.50319 93.8029 5.46962 92.2856 7.37579C91.4972 8.36537 90.9116 9.52847 90.5272 10.8535C90.1667 12.0958 89.9834 13.4805 89.9834 15.0014C89.9834 17.8936 90.6411 20.2954 91.9368 22.1553C92.0489 22.3164 92.1637 22.4739 92.2856 22.627C92.3159 22.6652 92.347 22.7017 92.3782 22.7391ZM74.0809 22.7391C75.5964 24.5705 77.8078 25.4987 80.6572 25.4987C83.5067 25.4987 85.8133 24.5269 87.3395 22.6118C88.8577 20.7039 89.6283 18.1427 89.6283 15.0005C89.6283 11.8582 88.8541 9.29354 87.3262 7.37491C87.0512 7.02962 86.7513 6.7146 86.4292 6.43161C84.9724 5.15104 83.0377 4.50319 80.6572 4.50319C77.7499 4.50319 75.5056 5.46962 73.9883 7.37579C73.1999 8.36537 72.6143 9.52847 72.2299 10.8535C71.8694 12.0958 71.6861 13.4805 71.6861 15.0014C71.6861 17.8936 72.3438 20.2954 73.6395 22.1553C73.7516 22.3164 73.8664 22.4739 73.9883 22.627C74.0186 22.6652 74.0497 22.7017 74.0809 22.7391ZM55.7836 22.7391C57.2991 24.5696 59.5105 25.4987 62.3599 25.4987C65.2094 25.4987 67.516 24.5269 69.0422 22.6118C70.5604 20.7039 71.3311 18.1427 71.3311 15.0005C71.3311 11.8582 70.5568 9.29354 69.0289 7.37491C68.7539 7.02962 68.454 6.7146 68.1319 6.43161C66.6751 5.15104 64.7404 4.50319 62.3599 4.50319C59.4526 4.50319 57.2083 5.46962 55.691 7.37579C54.9026 8.36537 54.317 9.52847 53.9326 10.8535C53.5722 12.0958 53.3888 13.4805 53.3888 15.0014C53.3888 17.8936 54.0465 20.2954 55.3422 22.1553C55.4543 22.3164 55.5691 22.4739 55.691 22.627C55.7213 22.6652 55.7524 22.7017 55.7836 22.7391ZM37.4863 22.7391C39.0018 24.5705 41.2132 25.4987 44.0627 25.4987C46.9121 25.4987 49.2188 24.5269 50.7449 22.6118C52.2631 20.7039 53.0338 18.1427 53.0338 15.0005C53.0338 11.8582 52.2595 9.29354 50.7316 7.37491C50.4566 7.02962 50.1567 6.7146 49.8346 6.43161C48.3778 5.15104 46.4431 4.50319 44.0627 4.50319C41.2381 4.50319 39.0409 5.41534 37.5263 7.21383C37.4818 7.26723 37.4373 7.32062 37.3937 7.37491C35.8666 9.29265 35.0915 11.8582 35.0915 15.0005C35.0915 16.1324 35.1939 17.1888 35.3941 18.1685C35.7492 19.9065 36.4166 21.3998 37.3937 22.6261C37.424 22.6643 37.4551 22.7017 37.4863 22.7391ZM16.6608 18.084C16.5914 17.9016 16.513 17.7227 16.424 17.5492C15.8323 16.387 14.8231 15.2363 13.555 14.7593C13.4847 14.7326 13.4393 14.6659 13.4393 14.5911C13.4393 14.5164 13.4874 14.4496 13.5577 14.4247C15.1987 13.8454 16.4098 12.5399 16.8361 10.9915C16.9455 10.5946 17.0043 10.1817 17.0043 9.76074C17.0043 9.33981 16.9455 8.91533 16.8361 8.51665C16.6439 7.81363 16.2923 7.16845 15.8162 6.61849C15.0322 5.71346 13.9119 5.0665 12.6064 4.85292C12.5548 4.84402 12.5094 4.81376 12.4818 4.76838C12.4542 4.72299 12.4497 4.66871 12.4667 4.61888C12.5859 4.27893 12.6802 3.97459 12.7576 3.70584C13.005 2.83818 13.0549 2.35763 13.0549 2.3514C13.0638 2.25618 13.0353 2.17075 12.9855 2.14317C12.9294 2.11291 12.8235 2.1494 12.7105 2.24017C12.698 2.24995 11.9932 2.78123 11.171 3.70673C10.9093 4.00128 10.6361 4.335 10.3691 4.7052C10.3353 4.75147 10.2819 4.77906 10.225 4.77906H10.0452C9.95712 4.77906 9.88148 4.7141 9.86902 4.62689C9.82186 4.30029 9.77024 3.99416 9.71774 3.70762C9.33508 1.63325 8.84741 0.581386 8.84119 0.569818C8.78156 0.442561 8.67922 0.354461 8.584 0.358021C8.49234 0.36069 8.40246 0.4568 8.33572 0.622322C8.32771 0.6419 7.77775 1.90022 7.50099 3.70762C7.4565 3.99772 7.41912 4.30118 7.39153 4.6171C7.38352 4.70876 7.3061 4.77995 7.21444 4.77995H7.04625C6.9893 4.77995 6.93501 4.75236 6.90209 4.70609C6.63512 4.33589 6.36192 4.00217 6.10029 3.70762C5.27801 2.78212 4.5741 2.25173 4.56431 2.24461C4.44685 2.15118 4.34095 2.11469 4.28488 2.14495C4.23416 2.17253 4.20568 2.25796 4.21547 2.35318C4.21547 2.35941 4.2653 2.84085 4.5127 3.70762C4.58745 3.97014 4.68 4.26558 4.7948 4.59663C4.81259 4.64646 4.80637 4.70253 4.77878 4.74791C4.75119 4.7933 4.70492 4.82444 4.65241 4.83156C2.58962 5.12612 0.954866 6.68523 0.489447 8.64925C0.402236 9.01767 0.355961 9.40032 0.355961 9.79099V25.2824H11.6106C12.3661 25.2824 13.0869 25.1267 13.7419 24.8464C15.2592 24.1976 16.4214 22.8797 16.8379 21.2734C16.9438 20.8649 17.0025 20.4378 17.006 19.9982C17.0096 19.5345 16.9509 19.0789 16.8379 18.6429C16.7889 18.4542 16.7302 18.2682 16.6617 18.0876L16.6608 18.084ZM17.3611 8.49262C17.3611 10.5305 17.9422 11.8627 19.318 14.0243C19.4115 14.172 19.5093 14.3233 19.6108 14.479C19.6419 14.5217 22.3277 18.1614 22.3971 18.2513C22.9319 18.9463 23.2327 19.8585 23.2309 20.808L23.2282 23.6806C23.2282 23.9502 23.287 24.2092 23.3938 24.4361C23.4676 24.5927 23.5637 24.7351 23.6812 24.8535C23.901 25.0733 24.1662 25.1899 24.4483 25.1899H28.0942C28.3763 25.1899 28.6415 25.0733 28.8613 24.8535C29.1497 24.5643 29.3152 24.1371 29.3143 23.6806L29.3116 20.808C29.3107 19.7339 29.6943 18.7078 30.3644 17.9932L33.0047 14.487C33.0101 14.4799 33.0154 14.4737 33.0207 14.4674C34.635 12.4447 35.2633 10.7699 35.2633 8.49262V4.97929C35.2633 4.97128 35.2624 4.96416 35.2606 4.95793C35.2553 4.93034 35.241 4.91521 35.2366 4.91343H30.3234C29.6124 4.91343 29.034 5.62803 29.034 6.50547V9.8693C29.034 11.1926 28.7207 12.1706 28.1022 12.7784C27.5434 13.3275 26.8617 13.4405 26.4435 13.4512C26.4034 13.4521 26.3643 13.4521 26.3287 13.4512C26.3233 13.4512 26.3189 13.4512 26.3144 13.4512H26.3126C25.9122 13.4601 25.1451 13.3871 24.5275 12.7837C23.9055 12.1768 23.5904 11.1961 23.5904 9.8693V6.50547C23.5904 5.96263 23.368 5.48208 23.0307 5.19464C22.8233 5.01844 22.5715 4.91432 22.301 4.91432H17.3851C17.3851 4.91432 17.3611 4.93835 17.3611 4.98018V8.49262ZM137.931 25.8012C138.65 25.8012 139.318 25.6811 139.911 25.4666C139.996 25.4364 140.08 25.4035 140.161 25.3687C140.307 25.3073 140.447 25.2406 140.582 25.1685C140.92 24.9879 141.223 24.7734 141.487 24.5331C141.487 24.5331 141.49 24.5322 141.494 24.5313H141.495C141.501 24.5313 141.508 24.5313 141.518 24.534H141.522C141.533 24.5358 141.544 24.5376 141.56 24.5411H141.561C141.576 24.5438 141.593 24.5483 141.612 24.5518C141.612 24.5518 141.616 24.5518 141.618 24.5536C141.639 24.558 141.662 24.5634 141.687 24.5687C141.71 24.5741 141.735 24.5794 141.761 24.5847C141.765 24.5856 141.77 24.5865 141.775 24.5874C141.802 24.5927 141.83 24.599 141.859 24.6052C141.865 24.6061 141.869 24.607 141.875 24.6079C141.906 24.6141 141.938 24.6203 141.972 24.6266C141.976 24.6266 141.98 24.6283 141.984 24.6292C142.02 24.6364 142.057 24.6426 142.097 24.6497H142.101C142.14 24.6568 142.181 24.663 142.223 24.6702C142.226 24.6702 142.23 24.6711 142.233 24.6719C142.274 24.6782 142.318 24.6853 142.361 24.6915C142.368 24.6924 142.375 24.6933 142.381 24.6942C142.425 24.7004 142.469 24.7058 142.514 24.712C142.522 24.7129 142.53 24.7138 142.538 24.7147C142.585 24.72 142.632 24.7253 142.68 24.7307C142.688 24.7307 142.696 24.7325 142.705 24.7334C142.755 24.7378 142.805 24.7431 142.856 24.7467C142.863 24.7467 142.87 24.7476 142.877 24.7485C142.932 24.7529 142.986 24.7565 143.042 24.7592C143.045 24.7592 143.048 24.7592 143.051 24.7592C143.107 24.7618 143.165 24.7645 143.224 24.7663C143.228 24.7663 143.233 24.7663 143.237 24.7663C143.295 24.7681 143.354 24.7689 143.413 24.7689C143.423 24.7689 143.433 24.7689 143.443 24.7689C143.463 24.7689 143.483 24.7689 143.503 24.7689C143.52 24.7689 143.538 24.7689 143.556 24.7689C143.576 24.7689 143.597 24.7681 143.617 24.7672C143.635 24.7672 143.652 24.7672 143.669 24.7654C143.69 24.7654 143.711 24.7636 143.732 24.7627C143.75 24.7627 143.767 24.7609 143.785 24.76C143.806 24.7592 143.827 24.7574 143.848 24.7565C143.866 24.7556 143.885 24.7547 143.903 24.7529C143.925 24.7512 143.947 24.7494 143.97 24.7476C143.987 24.7458 144.004 24.7449 144.022 24.7431C144.047 24.7414 144.073 24.7387 144.098 24.736C144.114 24.7342 144.128 24.7334 144.143 24.7316C144.158 24.7298 144.172 24.728 144.187 24.7262C144.212 24.7236 144.238 24.7209 144.264 24.7173C144.276 24.7156 144.287 24.7138 144.299 24.7129C144.328 24.7093 144.357 24.7049 144.387 24.7013C144.403 24.6986 144.42 24.696 144.437 24.6933C144.462 24.6897 144.486 24.6862 144.511 24.6817C144.529 24.6791 144.547 24.6755 144.565 24.6719C144.589 24.6675 144.613 24.6639 144.636 24.6595C144.655 24.6559 144.673 24.6524 144.693 24.6479C144.716 24.6435 144.739 24.639 144.762 24.6337C144.782 24.6292 144.801 24.6248 144.821 24.6203C144.844 24.615 144.866 24.6105 144.89 24.6052C144.909 24.6008 144.93 24.5954 144.949 24.591C144.971 24.5856 144.995 24.5803 145.017 24.5741C145.037 24.5687 145.057 24.5634 145.077 24.558C145.1 24.5518 145.123 24.5456 145.146 24.5394C145.162 24.5349 145.178 24.5305 145.194 24.5251C145.198 24.5242 145.203 24.5224 145.206 24.5216C145.229 24.5144 145.252 24.5082 145.275 24.5011C145.295 24.4949 145.316 24.4877 145.336 24.4815C145.359 24.4744 145.382 24.4673 145.404 24.4593C145.424 24.4521 145.446 24.445 145.466 24.4379C145.488 24.4299 145.511 24.4219 145.533 24.4139C145.553 24.4059 145.575 24.3987 145.595 24.3907C145.617 24.3818 145.64 24.3738 145.663 24.3649C145.683 24.3569 145.705 24.348 145.725 24.34C145.747 24.3311 145.77 24.3213 145.792 24.3124C145.813 24.3035 145.834 24.2946 145.855 24.2857C145.877 24.2759 145.9 24.2662 145.922 24.2555C145.942 24.2457 145.964 24.2359 145.984 24.2261C146.006 24.2154 146.029 24.2048 146.052 24.1941C146.072 24.1843 146.094 24.1736 146.114 24.1629C146.136 24.1514 146.159 24.1398 146.182 24.1282C146.202 24.1175 146.223 24.1069 146.244 24.0953C146.266 24.0828 146.288 24.0704 146.312 24.0579C146.332 24.0463 146.353 24.0348 146.373 24.0232C146.395 24.0099 146.418 23.9965 146.441 23.9832C146.461 23.9707 146.482 23.9591 146.501 23.9467C146.523 23.9324 146.546 23.9182 146.568 23.9049C146.588 23.8915 146.609 23.879 146.629 23.8657C146.652 23.8515 146.674 23.8354 146.696 23.8203C146.716 23.807 146.736 23.7936 146.756 23.7794C146.779 23.7634 146.801 23.7473 146.823 23.7304C146.843 23.7162 146.862 23.7028 146.882 23.6877C146.905 23.6708 146.927 23.653 146.951 23.6361C146.969 23.6219 146.989 23.6067 147.008 23.5916C147.032 23.5729 147.055 23.5542 147.078 23.5355C147.097 23.5204 147.114 23.5062 147.133 23.491C147.157 23.4706 147.181 23.4501 147.205 23.4288C147.222 23.4136 147.24 23.3994 147.257 23.3843C147.282 23.3611 147.308 23.3371 147.334 23.314C147.349 23.2997 147.364 23.2873 147.379 23.273C147.416 23.2383 147.452 23.2018 147.489 23.1653C147.493 23.1618 147.495 23.1591 147.499 23.1556C147.502 23.152 147.508 23.1458 147.515 23.1386L147.518 23.1351C147.524 23.1289 147.53 23.1226 147.536 23.1155C147.54 23.1119 147.543 23.1075 147.547 23.103C147.551 23.0977 147.556 23.0924 147.561 23.087C147.565 23.0826 147.569 23.0772 147.573 23.0728C147.577 23.0675 147.581 23.0621 147.585 23.0577C147.589 23.0532 147.591 23.0488 147.595 23.0443C147.598 23.039 147.603 23.0336 147.606 23.0292C147.609 23.0256 147.611 23.0221 147.614 23.0185C147.616 23.0141 147.62 23.0096 147.622 23.0061C147.623 23.0034 147.624 22.9989 147.624 22.9989C147.625 22.9963 147.627 22.9927 147.627 22.99L147.624 22.9874C147.624 22.9874 147.622 22.9838 147.619 22.9847C147.595 22.9883 147.573 22.99 147.552 22.9918C147.546 22.9918 147.541 22.9927 147.534 22.9936C147.519 22.9945 147.504 22.9963 147.49 22.9963C147.484 22.9963 147.479 22.9963 147.475 22.9963C147.457 22.9963 147.441 22.9972 147.426 22.9972H147.422C147.408 22.9972 147.395 22.9972 147.383 22.9963C147.38 22.9963 147.376 22.9963 147.376 22.9963C147.364 22.9963 147.355 22.9945 147.346 22.9936H147.341C147.334 22.9927 147.328 22.9909 147.323 22.99H147.32C147.315 22.9883 147.312 22.9865 147.309 22.9847L147.308 22.9838C147.308 22.9838 147.307 22.9802 147.308 22.9785C147.317 22.9696 147.326 22.9607 147.335 22.9527C147.468 22.8272 147.576 22.6919 147.663 22.5522C147.733 22.4401 147.789 22.3262 147.834 22.2123C147.895 22.061 147.936 21.9115 147.962 21.7709C147.97 21.7362 147.975 21.7015 147.98 21.6676C147.991 21.6 147.998 21.5359 148.003 21.4745C148.009 21.414 148.011 21.3571 148.012 21.3054C148.012 21.2939 148.01 21.2823 148.008 21.2716L148.007 21.2663C148.007 21.2627 148.005 21.2601 148.004 21.2574C148.001 21.2467 147.996 21.2369 147.99 21.2271L147.989 21.2245C147.983 21.2147 147.975 21.2067 147.966 21.1995C147.963 21.1978 147.961 21.196 147.959 21.1942C147.951 21.188 147.942 21.1826 147.933 21.1782L147.929 21.1764C147.919 21.172 147.908 21.1693 147.897 21.1675C147.894 21.1675 147.891 21.1675 147.888 21.1675C147.884 21.1675 147.881 21.1666 147.877 21.1666C147.87 21.1666 147.864 21.1675 147.856 21.1684H147.853C147.841 21.1702 147.831 21.1746 147.82 21.18C147.817 21.1809 147.815 21.1826 147.813 21.1844C147.802 21.1906 147.792 21.1978 147.783 21.2076C147.712 21.2814 147.627 21.3606 147.536 21.4416C147.491 21.4825 147.444 21.5226 147.396 21.5635C147.156 21.7655 146.9 21.9569 146.749 22.0565C146.689 22.0957 146.631 22.1331 146.575 22.1678C145.868 22.6109 145.509 22.7079 145.326 22.7302H145.323C145.317 22.7302 145.31 22.732 145.305 22.732C145.284 22.7337 145.265 22.7355 145.249 22.7364H145.243C145.238 22.7364 145.234 22.7337 145.23 22.732C145.228 22.7311 145.225 22.7311 145.222 22.7293C145.219 22.7266 145.217 22.7231 145.214 22.7186C145.213 22.7168 145.211 22.7151 145.21 22.7124C145.208 22.7079 145.209 22.7035 145.209 22.699V22.6928C145.211 22.6866 145.214 22.6812 145.221 22.6786C145.239 22.6697 145.256 22.6608 145.272 22.6519C145.288 22.643 145.303 22.6332 145.318 22.6243C145.453 22.5371 145.517 22.4427 145.531 22.4205L145.534 22.416C145.534 22.416 145.526 22.4178 145.511 22.4214L145.506 22.4223C145.5 22.4241 145.492 22.4249 145.484 22.4267C145.481 22.4267 145.478 22.4276 145.475 22.4285C145.467 22.4303 145.457 22.4321 145.448 22.4338C145.443 22.4338 145.44 22.4356 145.435 22.4365C145.423 22.4383 145.411 22.441 145.399 22.4436C145.395 22.4436 145.391 22.4454 145.387 22.4454C145.36 22.4508 145.329 22.4561 145.296 22.4614C145.286 22.4632 145.276 22.465 145.265 22.4668C145.26 22.4677 145.254 22.4685 145.247 22.4694C145.23 22.4721 145.213 22.4748 145.194 22.4774C145.186 22.4783 145.177 22.4801 145.169 22.481C145.152 22.4837 145.134 22.4863 145.116 22.4881C145.107 22.4899 145.097 22.4908 145.087 22.4917C145.069 22.4944 145.052 22.4961 145.033 22.4988C145.022 22.4997 145.011 22.5015 145.001 22.5024C144.981 22.505 144.961 22.5068 144.94 22.5095C144.93 22.5104 144.92 22.5122 144.91 22.513C144.882 22.5157 144.853 22.5184 144.823 22.5211C144.82 22.5211 144.817 22.5211 144.815 22.5211C144.783 22.5237 144.75 22.5264 144.716 22.5291C144.706 22.5291 144.696 22.53 144.686 22.5308C144.662 22.5326 144.639 22.5335 144.615 22.5353C144.602 22.5353 144.589 22.5362 144.575 22.5371C144.553 22.538 144.531 22.5389 144.509 22.5397C144.494 22.5397 144.481 22.5397 144.467 22.5406C144.445 22.5406 144.422 22.5406 144.4 22.5406C144.391 22.5406 144.383 22.5406 144.374 22.5406C144.371 22.5406 144.366 22.5406 144.363 22.5406C144.315 22.5406 144.267 22.5397 144.218 22.538C144.209 22.538 144.2 22.538 144.191 22.5371C144.142 22.5353 144.092 22.5317 144.043 22.5282H144.038C143.988 22.5237 143.938 22.5184 143.889 22.5113C143.88 22.5104 143.871 22.5086 143.861 22.5077C143.813 22.5006 143.766 22.4926 143.718 22.4837C143.71 22.4819 143.701 22.4801 143.693 22.4783C143.645 22.4685 143.597 22.457 143.55 22.4436H143.548C143.501 22.4303 143.456 22.4152 143.411 22.3991C143.403 22.3965 143.395 22.3929 143.387 22.3902C143.344 22.3733 143.302 22.3555 143.262 22.336C143.254 22.3324 143.247 22.3279 143.24 22.3244C143.199 22.303 143.158 22.2808 143.12 22.255C143.176 22.109 143.225 21.9604 143.268 21.8082C143.332 21.5804 143.383 21.3473 143.417 21.1088C143.443 20.9299 143.459 20.7475 143.467 20.5633C143.469 20.5019 143.471 20.4405 143.471 20.3782C143.471 20.2634 143.467 20.1495 143.461 20.0356C143.456 19.9332 143.446 19.8318 143.435 19.7303C143.407 19.474 143.362 19.2231 143.298 18.9783C143.286 18.9285 143.273 18.8796 143.259 18.8306C143.239 18.7603 143.217 18.6909 143.195 18.6215C143.109 18.3616 143.004 18.1107 142.882 17.8695C142.849 17.8055 142.814 17.7414 142.78 17.6791C142.526 17.2244 142.209 16.8097 141.842 16.4475C141.662 16.2704 141.471 16.1057 141.268 15.9553C140.863 15.6537 140.413 15.4072 139.933 15.2256C140.515 15.0201 141.036 14.7246 141.489 14.3562C141.59 14.2743 141.688 14.1889 141.781 14.0999C141.828 14.0554 141.874 14.01 141.919 13.9646C142.01 13.873 142.096 13.7769 142.179 13.679C142.224 13.6256 142.268 13.5713 142.311 13.5161C142.611 13.1299 142.858 12.701 143.047 12.2418C143.28 11.6776 143.425 11.0671 143.471 10.4291C143.483 10.2724 143.487 10.106 143.484 9.9316C143.482 9.75718 143.47 9.57652 143.449 9.38965C143.443 9.33714 143.436 9.28553 143.429 9.23213C143.416 9.13602 143.4 9.03902 143.38 8.94113C143.366 8.86905 143.35 8.79608 143.333 8.72311C143.331 8.71599 143.33 8.70887 143.328 8.70175C143.288 8.53445 143.24 8.36537 143.181 8.1954C143.141 8.0806 143.097 7.96491 143.047 7.85011C142.997 7.73176 142.942 7.6134 142.88 7.49682C142.85 7.43898 142.819 7.38113 142.786 7.32418C142.688 7.15243 142.578 6.98246 142.453 6.81694C142.391 6.73418 142.326 6.6523 142.257 6.57132C142.189 6.49034 142.116 6.41114 142.04 6.33283L142.037 6.33016C141.43 5.70723 140.59 5.1724 139.444 4.828C139.349 4.79953 139.251 4.77194 139.151 4.74613C138.95 4.69452 138.742 4.64735 138.525 4.60731C138.416 4.58684 138.305 4.56815 138.192 4.55124C137.625 4.46581 137.001 4.41865 136.314 4.41865C136.29 4.41865 132.912 4.43645 132.522 4.47738C130.957 4.6429 129.805 5.12167 128.957 5.77931C128.851 5.86118 128.749 5.94661 128.652 6.03382C128.555 6.12103 128.464 6.21091 128.376 6.30346C128.024 6.67277 127.742 7.07768 127.515 7.50216C127.43 7.66145 127.353 7.82342 127.283 7.98716C127.203 8.17404 127.132 8.36359 127.069 8.55403C126.881 9.12534 126.767 9.70556 126.697 10.26C126.594 11.0831 126.59 11.8476 126.59 12.4358V25.7995H126.701H137.939L137.931 25.8012ZM137.511 19.604C137.511 19.6511 137.51 19.6974 137.507 19.7428C137.504 19.7891 137.499 19.8344 137.494 19.8798C137.478 20.0035 137.451 20.1245 137.415 20.2411C137.306 20.5998 137.106 20.9237 136.84 21.188C136.79 21.2378 136.737 21.2859 136.682 21.3321C136.627 21.3784 136.57 21.422 136.511 21.463C136.097 21.7513 135.583 21.9221 135.027 21.9221H132.5V17.2849H135.027C135.627 17.2849 136.178 17.4833 136.607 17.8144C136.669 17.8615 136.727 17.9114 136.783 17.9639C136.896 18.0689 136.998 18.1837 137.087 18.3074C137.131 18.3688 137.173 18.4328 137.211 18.4987C137.25 18.5645 137.284 18.6322 137.316 18.7016C137.333 18.7363 137.347 18.771 137.361 18.8066C137.385 18.8689 137.407 18.9321 137.426 18.997C137.482 19.1901 137.511 19.3939 137.511 19.604ZM137.056 20.1975C137.008 20.1948 136.959 20.1931 136.911 20.1931H134.384V21.5662H135.027C135.969 21.5662 136.782 20.9984 137.056 20.1975ZM137.361 10.0544C137.459 10.3027 137.511 10.5714 137.511 10.8518C137.511 10.9452 137.505 11.0369 137.494 11.1276C137.478 11.2513 137.451 11.3723 137.415 11.4889C137.306 11.8476 137.106 12.1715 136.84 12.4358C136.79 12.4856 136.737 12.5337 136.682 12.5799C136.627 12.6262 136.57 12.6698 136.511 12.7108C136.097 12.9991 135.583 13.17 135.027 13.17H132.5V8.53267H135.027C135.627 8.53267 136.178 8.73112 136.607 9.06216C136.669 9.10933 136.727 9.15916 136.783 9.21167C136.896 9.31667 136.998 9.43147 137.087 9.55517C137.131 9.61657 137.173 9.68064 137.211 9.7465C137.268 9.84528 137.319 9.94761 137.361 10.0544ZM137.056 11.4453C137.008 11.4427 136.959 11.4409 136.911 11.4409H134.384V12.814H135.027C135.969 12.814 136.782 12.2462 137.056 11.4453Z" fill="black"/>
</svg>
