<svg width="121" height="114" viewBox="0 0 121 114" fill="none" xmlns="http://www.w3.org/2000/svg">
<path d="M16.8267 40.4804L13.9989 30.7966C12.9598 27.2383 15.3638 23.5985 19.0443 23.1574L29.6435 21.887C31.9738 21.6077 33.9273 19.9953 34.6433 17.7602L37.8822 7.65062C39.1057 3.83174 43.659 2.26481 46.9735 4.52201L55.8355 10.5572C57.8732 11.9449 60.5524 11.9449 62.5901 10.5572L71.1913 4.69962C74.5821 2.39044 79.2385 4.08914 80.3459 8.03929L82.8713 17.0481C83.5974 19.6382 85.9586 21.4286 88.6486 21.4286H101.516C105.613 21.4286 108.504 25.4424 107.208 29.328L103.557 40.267C102.707 42.8135 103.652 45.6146 105.871 47.1257L113.718 52.4694C117.215 54.8508 117.215 60.0063 113.718 62.3878L105.23 68.1679C103.329 69.463 102.335 71.7315 102.673 74.0074L104.533 86.5483C105.07 90.1729 102.262 93.4286 98.5976 93.4286H88.5978C85.9318 93.4286 83.5856 95.1877 82.8383 97.7467L80.5569 105.56C79.3723 109.616 74.477 111.21 71.1315 108.628L62.8787 102.258C60.719 100.591 57.7065 100.591 55.5468 102.258L47.0177 108.841C43.7488 111.364 38.9675 109.907 37.6603 105.99L34.8366 97.5292C34.0193 95.0802 31.7269 93.4286 29.1451 93.4286H19.7704C15.8447 93.4286 12.9766 89.7209 13.9629 85.9211L16.9844 74.2805C17.6089 71.8744 16.6851 69.3324 14.6615 67.8887L6.84617 62.3129C3.49244 59.9202 3.49244 54.9369 6.84617 52.5442L14.5519 47.0466C16.6294 45.5644 17.542 42.9302 16.8267 40.4804Z" fill="#F65608"/>
</svg>
