<svg width="160" height="155" viewBox="0 0 160 155" fill="none" xmlns="http://www.w3.org/2000/svg">
<path fill-rule="evenodd" clip-rule="evenodd" d="M71.2932 3.69373L70.0745 0.813537L69.396 3.86647L62.7855 33.6128L34.6949 12.8728L31.7569 10.7035L33.18 14.0669L46.4019 45.315L13.6458 37.6066L10.0771 36.7668L12.7252 39.3023L39.8738 65.2971L0.368695 67.8008L0.0815894 69.7355L34.0625 82.4466L25.0893 91.1422L5.04627 105.475L2.16015 107.538L5.69922 107.285L41.2931 104.742L37.4967 113.282L23.6624 139.683L22.1097 142.646L25.0339 141.021L57.4709 122.996L59.2583 122.142L61.8144 150.755L62.1343 154.336L63.7094 151.104L76 125.881V121.315L63.4865 146.995L61.1223 120.53L60.9942 119.097L59.6953 119.717L56.581 121.205L56.5532 121.218L56.5263 121.233L26.9867 137.648L39.2832 114.181L39.2982 114.153L39.3112 114.123L43.7974 104.032L44.4742 102.509L42.8124 102.628L9.09572 105.038L26.3133 92.7256L26.3739 92.6822L26.4275 92.6303L36.4531 82.9149L37.3788 82.0179L36.2798 81.3442L35.51 80.8723L35.4279 80.822L35.3377 80.7882L5.16324 69.501L42.2748 67.1489L44.5492 67.0048L42.9031 65.4286L16.7564 40.3933L47.8615 47.7131L49.7792 48.1644L49.0115 46.35L36.4451 16.651L62.8343 36.1348L64.0709 37.0479L64.4044 35.5472L70.67 7.35329L83.4408 37.5355L84.179 39.2802L85.2031 37.6865L104.807 7.17732L103.835 41.1555L103.785 42.9048L105.317 42.0598L135.05 25.6661L118.422 53.6577L117.455 55.2869L119.346 55.1664L152.564 53.0499L124.142 73.9786L122.582 75.1271L124.422 75.7335L134.329 78.9995H140.717L126.888 74.4405L156.493 52.6406L159.236 50.6208L155.837 50.8374L121.11 53.05L138.648 23.5251L140.527 20.3626L137.306 22.1387L105.884 39.4634L106.909 3.64036L107.012 0.0461858L105.068 3.07116L84.5445 35.0116L71.2932 3.69373Z" fill="black"/>
</svg>
