<svg width="238" height="197" viewBox="0 0 238 197" fill="none" xmlns="http://www.w3.org/2000/svg">
<circle cx="153" cy="111.717" r="69.7159" transform="rotate(-14.5564 153 111.717)" fill="#E9492D"/>
<mask id="path-2-inside-1_823_380" fill="white">
<path fill-rule="evenodd" clip-rule="evenodd" d="M164.108 158.764C164.151 158.753 164.194 158.742 164.237 158.731C190.341 151.952 206.008 125.296 199.229 99.1918C192.451 73.0878 165.794 57.4213 139.69 64.1997C139.647 64.2109 139.604 64.2221 139.562 64.2333L164.108 158.764Z"/>
</mask>
<path d="M164.108 158.764L162.172 159.267L162.674 161.197L164.606 160.701L164.108 158.764ZM139.562 64.2333L139.054 62.2989L137.124 62.8054L137.626 64.736L139.562 64.2333ZM163.734 156.795C163.693 156.806 163.652 156.816 163.611 156.827L164.606 160.701C164.65 160.689 164.695 160.678 164.74 160.666L163.734 156.795ZM197.293 99.6944C203.794 124.729 188.769 150.294 163.734 156.795L164.74 160.666C191.913 153.61 208.221 125.862 201.165 98.6891L197.293 99.6944ZM140.193 66.1355C165.228 59.6347 190.793 74.6596 197.293 99.6944L201.165 98.6891C194.109 71.516 166.361 55.2079 139.188 62.2639L140.193 66.1355ZM140.069 66.1678C140.111 66.157 140.152 66.1462 140.193 66.1355L139.188 62.2639C139.143 62.2755 139.098 62.2872 139.054 62.2989L140.069 66.1678ZM137.626 64.736L162.172 159.267L166.044 158.261L141.497 63.7307L137.626 64.736Z" fill="black" mask="url(#path-2-inside-1_823_380)"/>
<mask id="path-4-inside-2_823_380" fill="white">
<path fill-rule="evenodd" clip-rule="evenodd" d="M164.108 158.764C164.151 158.753 164.194 158.742 164.237 158.731C190.341 151.952 176.75 105.029 176.75 105.029C176.75 105.029 165.794 57.4213 139.69 64.1997C139.647 64.2109 139.604 64.2221 139.562 64.2333L164.108 158.764Z"/>
</mask>
<path d="M164.108 158.764L162.172 159.267L162.674 161.197L164.606 160.701L164.108 158.764ZM176.75 105.029L174.801 105.477L174.813 105.532L174.829 105.585L176.75 105.029ZM139.562 64.2333L139.054 62.2989L137.124 62.8054L137.626 64.736L139.562 64.2333ZM163.734 156.795C163.693 156.806 163.652 156.816 163.611 156.827L164.606 160.701C164.65 160.689 164.695 160.678 164.74 160.666L163.734 156.795ZM176.75 105.029C174.829 105.585 174.829 105.585 174.829 105.585C174.829 105.585 174.829 105.585 174.829 105.585C174.829 105.586 174.829 105.588 174.83 105.59C174.831 105.594 174.833 105.601 174.836 105.611C174.842 105.631 174.85 105.662 174.862 105.703C174.885 105.786 174.92 105.912 174.965 106.079C175.055 106.411 175.185 106.905 175.341 107.539C175.655 108.806 176.076 110.631 176.502 112.844C177.355 117.28 178.217 123.231 178.283 129.359C178.349 135.515 177.608 141.687 175.379 146.663C173.186 151.56 169.575 155.278 163.734 156.795L164.74 160.666C171.951 158.794 176.43 154.105 179.03 148.297C181.595 142.569 182.351 135.739 182.282 129.316C182.213 122.867 181.309 116.663 180.43 112.089C179.989 109.797 179.552 107.903 179.224 106.578C179.06 105.915 178.924 105.395 178.827 105.037C178.779 104.858 178.741 104.719 178.714 104.624C178.701 104.577 178.69 104.54 178.683 104.515C178.679 104.502 178.677 104.492 178.675 104.485C178.674 104.482 178.673 104.479 178.672 104.477C178.672 104.476 178.671 104.475 178.671 104.474C178.671 104.473 178.671 104.473 176.75 105.029ZM140.193 66.1355C146.033 64.619 150.998 66.1102 155.296 69.3218C159.664 72.5851 163.314 77.6164 166.251 83.0267C169.176 88.4132 171.318 94.0314 172.731 98.3218C173.435 100.462 173.955 102.262 174.298 103.522C174.47 104.151 174.596 104.646 174.68 104.98C174.722 105.147 174.753 105.275 174.773 105.358C174.783 105.4 174.79 105.432 174.795 105.452C174.797 105.462 174.799 105.469 174.8 105.473C174.8 105.475 174.801 105.477 174.801 105.477C174.801 105.478 174.801 105.478 174.801 105.478C174.801 105.478 174.801 105.477 176.75 105.029C178.699 104.58 178.699 104.58 178.699 104.579C178.698 104.578 178.698 104.577 178.698 104.576C178.697 104.574 178.697 104.571 178.696 104.568C178.694 104.56 178.692 104.55 178.689 104.537C178.683 104.512 178.674 104.475 178.663 104.427C178.64 104.331 178.606 104.192 178.561 104.012C178.471 103.652 178.337 103.13 178.158 102.472C177.8 101.155 177.26 99.2873 176.53 97.0706C175.073 92.6463 172.844 86.7863 169.767 81.1182C166.702 75.4738 162.719 69.8742 157.691 66.1174C152.593 62.3091 146.399 60.3912 139.188 62.2639L140.193 66.1355ZM140.069 66.1678C140.111 66.157 140.152 66.1462 140.193 66.1355L139.188 62.2639C139.143 62.2755 139.098 62.2872 139.054 62.2989L140.069 66.1678ZM137.626 64.736L162.172 159.267L166.044 158.261L141.497 63.7307L137.626 64.736Z" fill="black" mask="url(#path-4-inside-2_823_380)"/>
<path d="M157.874 130.49C167.629 127.517 181.232 124.425 195.075 132.927" stroke="black" stroke-width="2"/>
<path d="M147.856 91.9067C157.825 89.7585 171.214 85.8414 179.171 71.678" stroke="black" stroke-width="2"/>
<mask id="path-8-inside-3_823_380" fill="white">
<path fill-rule="evenodd" clip-rule="evenodd" d="M165.825 158.318C165.782 158.329 165.739 158.341 165.696 158.352C139.592 165.13 112.935 149.464 106.157 123.36C99.3786 97.2556 115.045 70.5992 141.149 63.8208C141.192 63.8097 141.235 63.7986 141.278 63.7875L165.825 158.318Z"/>
</mask>
<path d="M165.825 158.318L167.76 157.815L168.262 159.746L166.333 160.252L165.825 158.318ZM141.278 63.7875L140.781 61.8504L142.713 61.3542L143.214 63.2849L141.278 63.7875ZM165.193 156.416C165.235 156.405 165.276 156.394 165.317 156.384L166.333 160.252C166.288 160.264 166.243 160.276 166.198 160.287L165.193 156.416ZM108.093 122.857C114.594 147.892 140.158 162.917 165.193 156.416L166.198 160.287C139.025 167.343 111.277 151.035 104.221 123.862L108.093 122.857ZM141.652 65.7566C116.617 72.2574 101.592 97.8221 108.093 122.857L104.221 123.862C97.1652 96.6892 113.473 68.941 140.646 61.885L141.652 65.7566ZM141.776 65.7247C141.734 65.7353 141.693 65.7459 141.652 65.7566L140.646 61.885C140.691 61.8734 140.736 61.8619 140.781 61.8504L141.776 65.7247ZM143.214 63.2849L167.76 157.815L163.889 158.821L139.342 64.2902L143.214 63.2849Z" fill="black" mask="url(#path-8-inside-3_823_380)"/>
<mask id="path-10-inside-4_823_380" fill="white">
<path fill-rule="evenodd" clip-rule="evenodd" d="M165.825 158.318C165.782 158.329 165.739 158.341 165.696 158.352C139.592 165.13 128.636 117.522 128.636 117.522C128.636 117.522 115.045 70.5992 141.149 63.8208C141.192 63.8097 141.235 63.7986 141.278 63.7875L165.825 158.318Z"/>
</mask>
<path d="M165.825 158.318L167.76 157.815L168.262 159.746L166.333 160.252L165.825 158.318ZM128.636 117.522L130.557 116.966L130.573 117.02L130.585 117.074L128.636 117.522ZM141.278 63.7875L140.781 61.8504L142.713 61.3542L143.214 63.2849L141.278 63.7875ZM165.193 156.416C165.235 156.405 165.276 156.394 165.317 156.384L166.333 160.252C166.288 160.264 166.243 160.276 166.198 160.287L165.193 156.416ZM128.636 117.522C130.585 117.074 130.585 117.074 130.585 117.073C130.585 117.074 130.585 117.074 130.585 117.074C130.586 117.075 130.586 117.076 130.586 117.078C130.587 117.083 130.589 117.09 130.591 117.1C130.596 117.12 130.604 117.151 130.614 117.193C130.634 117.277 130.665 117.404 130.706 117.571C130.79 117.905 130.917 118.4 131.088 119.03C131.431 120.29 131.951 122.089 132.656 124.23C134.069 128.52 136.21 134.138 139.135 139.525C142.072 144.935 145.722 149.966 150.09 153.23C154.388 156.441 159.353 157.932 165.193 156.416L166.198 160.287C158.987 162.16 152.793 160.242 147.696 156.434C142.667 152.677 138.684 147.078 135.619 141.433C132.542 135.765 130.313 129.905 128.856 125.481C128.126 123.264 127.587 121.397 127.228 120.08C127.049 119.421 126.915 118.899 126.825 118.54C126.78 118.36 126.747 118.22 126.724 118.125C126.712 118.077 126.703 118.04 126.697 118.014C126.694 118.001 126.692 117.991 126.69 117.984C126.689 117.98 126.689 117.977 126.688 117.975C126.688 117.974 126.688 117.973 126.688 117.973C126.687 117.972 126.687 117.971 128.636 117.522ZM141.652 65.7566C135.812 67.2732 132.2 70.9913 130.007 75.8887C127.778 80.8648 127.038 87.0362 127.104 93.1921C127.169 99.3208 128.032 105.271 128.885 109.707C129.31 111.92 129.731 113.745 130.045 115.013C130.202 115.646 130.331 116.14 130.421 116.473C130.466 116.639 130.501 116.765 130.524 116.848C130.536 116.89 130.544 116.921 130.55 116.94C130.553 116.95 130.555 116.957 130.556 116.962C130.557 116.964 130.557 116.965 130.557 116.966C130.557 116.966 130.557 116.966 130.558 116.967C130.557 116.966 130.557 116.966 128.636 117.522C126.715 118.079 126.715 118.078 126.715 118.077C126.715 118.077 126.714 118.076 126.714 118.075C126.713 118.073 126.713 118.07 126.712 118.066C126.71 118.059 126.707 118.049 126.703 118.036C126.696 118.011 126.686 117.974 126.672 117.927C126.646 117.832 126.607 117.694 126.559 117.515C126.463 117.157 126.326 116.636 126.162 115.973C125.834 114.648 125.397 112.754 124.957 110.462C124.077 105.888 123.173 99.6843 123.104 93.235C123.035 86.8127 123.791 79.9824 126.356 74.254C128.956 68.4468 133.435 63.7577 140.646 61.885L141.652 65.7566ZM141.776 65.7247C141.734 65.7353 141.693 65.7459 141.652 65.7566L140.646 61.885C140.691 61.8734 140.736 61.8619 140.781 61.8504L141.776 65.7247ZM143.214 63.2849L167.76 157.815L163.889 158.821L139.342 64.2902L143.214 63.2849Z" fill="black" mask="url(#path-10-inside-4_823_380)"/>
<path d="M157.515 130.583C147.546 132.732 134.157 136.649 126.2 150.812" stroke="black" stroke-width="2"/>
<path d="M147.495 92C137.74 94.9735 124.138 98.0653 110.295 89.5627" stroke="black" stroke-width="2"/>
<path d="M107.726 125.136L200.638 101.009" stroke="black" stroke-width="2"/>
<path fill-rule="evenodd" clip-rule="evenodd" d="M-0.000305176 91.0592C0.0412505 91.0593 0.0828193 91.0593 0.124401 91.0593C25.2697 91.0593 45.6541 70.675 45.6541 45.5297C45.6541 20.3843 25.2697 0 0.124401 0C0.0828193 0 0.0412505 5.57427e-05 -0.000305176 0.000167157V91.0592Z" fill="#1F8D42"/>
<path fill-rule="evenodd" clip-rule="evenodd" d="M45.6725 91.0592C45.7141 91.0593 45.7557 91.0593 45.7973 91.0593C70.9426 91.0593 91.3269 70.675 91.3269 45.5297C91.3269 20.3843 70.9426 0 45.7973 0C45.7557 0 45.7141 5.57427e-05 45.6725 0.000167157V91.0592Z" fill="#1F8D42"/>
<path fill-rule="evenodd" clip-rule="evenodd" d="M91.3454 91.0592C91.387 91.0593 91.4285 91.0593 91.4701 91.0593C116.615 91.0593 137 70.675 137 45.5297C137 20.3843 116.615 0 91.4701 0C91.4285 0 91.387 5.57427e-05 91.3454 0.000167157V91.0592Z" fill="#1F8D42"/>
</svg>
